<?xml version="1.0" standalone="no"?>
<!DOCTYPE svg PUBLIC "-//W3C//DTD SVG 20010904//EN"
 "http://www.w3.org/TR/2001/REC-SVG-20010904/DTD/svg10.dtd">
<svg version="1.0" xmlns="http://www.w3.org/2000/svg"
 width="2816.000000pt" height="1536.000000pt" viewBox="0 0 2816.000000 1536.000000"
 preserveAspectRatio="xMidYMid meet">

<g transform="translate(0.000000,1536.000000) scale(0.100000,-0.100000)"
fill="#000000" stroke="none">
<path d="M15595 15298 c-126 -139 -238 -341 -334 -599 -54 -146 -168 -532
-196 -666 -16 -76 -21 -84 -52 -103 l-34 -20 -33 35 c-28 30 -40 35 -77 35
-49 0 -85 -17 -201 -92 -98 -64 -131 -124 -93 -174 8 -10 15 -22 15 -26 0 -4
-27 -26 -60 -48 -57 -39 -62 -40 -82 -25 -13 8 -30 15 -40 15 -29 0 -60 -38
-56 -68 3 -24 -6 -33 -67 -73 -83 -54 -121 -95 -135 -150 -15 -53 -5 -80 73
-204 163 -259 217 -344 275 -433 34 -53 119 -192 189 -309 103 -171 135 -216
167 -237 67 -43 103 -37 229 40 101 61 109 65 126 50 41 -37 107 2 98 59 -5
27 0 34 45 63 l50 34 29 -30 c58 -59 97 -50 264 60 108 72 122 104 81 198 -4
11 6 22 37 39 l44 24 114 -21 c330 -62 576 -86 854 -86 404 0 537 45 1005 343
406 259 455 300 495 421 l16 48 102 4 c88 3 110 7 162 33 101 49 173 135 206
243 l13 43 61 -6 c156 -17 324 76 395 218 16 33 30 66 30 74 0 9 17 13 63 13
78 0 165 22 225 57 26 15 210 133 409 263 200 129 609 393 910 585 301 193
576 369 612 392 l66 43 -116 0 -115 0 -515 -329 c-642 -412 -662 -425 -1010
-652 -361 -236 -350 -231 -446 -227 -55 2 -78 7 -83 18 -4 8 -27 76 -51 150
-75 236 -231 559 -426 883 l-95 157 -74 0 c-41 0 -74 -2 -74 -5 0 -2 30 -50
66 -105 101 -154 227 -378 315 -557 43 -89 79 -166 79 -172 0 -5 17 -50 39
-98 58 -133 101 -275 101 -336 -1 -138 -120 -247 -273 -247 -38 0 -77 4 -87
10 -11 6 -26 34 -35 67 -69 241 -242 610 -438 936 -133 221 -315 497 -331 503
-7 3 -43 4 -80 2 l-66 -3 56 -79 c72 -102 230 -347 329 -511 159 -264 329
-625 406 -865 38 -116 36 -178 -8 -249 -34 -54 -99 -106 -151 -121 -74 -20
-192 -8 -192 21 0 13 -91 254 -148 389 -43 105 -226 451 -317 600 -146 240
-297 466 -469 698 l-90 122 -79 0 c-73 0 -77 -1 -65 -17 7 -10 62 -83 122
-163 141 -189 359 -515 486 -726 171 -285 393 -758 445 -949 19 -69 12 -118
-27 -175 -37 -55 -526 -382 -733 -491 -154 -81 -311 -122 -520 -134 -202 -13
-601 25 -919 86 -174 33 -185 32 -259 -17 -22 -14 -40 -24 -41 -22 -6 7 -204
337 -239 397 -21 36 -67 109 -101 161 -180 271 -316 482 -316 490 0 5 15 17
33 29 61 38 75 61 102 176 79 336 205 714 301 908 79 159 206 319 329 415 l40
31 -102 1 -101 0 -57 -62z m-597 -1655 c162 -243 385 -595 534 -843 136 -227
141 -236 125 -247 -19 -15 -134 -83 -140 -83 -3 0 -32 44 -65 98 -32 53 -117
192 -188 307 -143 235 -428 679 -510 797 -30 43 -54 80 -54 82 0 9 134 96 147
96 7 0 75 -93 151 -207z m-146 -348 c154 -239 232 -364 434 -698 l53 -87 -59
-40 c-32 -22 -62 -40 -65 -40 -4 0 -18 14 -33 32 -133 158 -407 465 -422 472
-47 21 -105 -29 -84 -73 5 -11 101 -125 214 -255 113 -130 206 -240 208 -245
3 -10 -143 -101 -164 -101 -8 0 -35 33 -60 73 -25 39 -114 182 -198 317 -84
135 -189 301 -233 370 -44 69 -101 162 -127 208 -56 96 -58 90 53 165 l75 50
25 -30 c100 -118 329 -364 344 -369 20 -6 65 19 74 43 11 30 -13 63 -169 235
-86 95 -157 177 -158 181 -2 12 104 77 111 69 4 -4 85 -128 181 -277z"/>
<path d="M14320 12683 l-65 -68 68 65 c62 60 72 70 64 70 -1 0 -32 -30 -67
-67z"/>
<path d="M14380 12603 l-55 -58 58 55 c53 50 62 60 54 60 -1 0 -27 -26 -57
-57z"/>
<path d="M14279 12493 c-13 -16 -12 -17 4 -4 9 7 17 15 17 17 0 8 -8 3 -21
-13z"/>
<path d="M14229 12433 c-13 -16 -12 -17 4 -4 16 13 21 21 13 21 -2 0 -10 -8
-17 -17z"/>
<path d="M14383 12303 c-10 -10 -14 -15 -8 -11 6 4 22 12 36 17 15 6 18 10 8
10 -9 1 -25 -7 -36 -16z"/>
<path d="M14445 12300 c20 -33 12 -63 -28 -107 -11 -13 -15 -23 -9 -23 16 0
62 71 62 96 0 12 -8 28 -17 35 -15 12 -16 12 -8 -1z"/>
<path d="M22870 12238 c-412 -38 -936 -190 -1324 -385 -185 -93 -335 -183
-816 -493 -878 -566 -1089 -689 -1640 -958 -919 -450 -1927 -940 -1995 -972
-150 -71 -1536 -746 -2345 -1144 l-535 -262 0 -70 0 -70 355 174 c1141 560
2159 1055 2870 1397 504 242 1720 839 1965 964 364 186 624 340 1165 689 682
441 832 533 1017 626 228 114 542 231 778 289 538 134 1125 137 1671 7 192
-45 317 -84 534 -167 229 -88 923 -325 1650 -564 283 -94 833 -276 1222 -405
389 -128 710 -234 713 -234 3 0 5 28 5 63 l0 62 -127 43 c-71 23 -789 262
-1598 531 -808 269 -1558 521 -1665 561 -578 215 -851 286 -1230 320 -136 12
-535 11 -670 -2z"/>
<path d="M14305 12201 c-6 -11 13 -26 22 -17 4 3 1 6 -6 6 -7 0 -9 5 -6 10 3
6 4 10 1 10 -3 0 -7 -4 -11 -9z"/>
<path d="M13926 12163 c-6 -14 -5 -15 5 -6 7 7 10 15 7 18 -3 3 -9 -2 -12 -12z"/>
<path d="M14275 12154 c-9 -15 -12 -23 -6 -20 11 7 35 46 28 46 -3 0 -12 -12
-22 -26z"/>
<path d="M14040 12150 c-6 -11 -8 -20 -6 -20 3 0 10 9 16 20 6 11 8 20 6 20
-3 0 -10 -9 -16 -20z"/>
<path d="M14370 12120 c-8 -5 -12 -10 -7 -10 4 0 0 -12 -9 -27 -15 -26 -15
-27 1 -8 17 21 38 55 33 55 -2 0 -10 -5 -18 -10z"/>
<path d="M14641 12107 c-13 -21 -12 -21 5 -5 10 10 16 20 13 22 -3 3 -11 -5
-18 -17z"/>
<path d="M14237 12090 c-10 -17 -13 -30 -8 -30 6 0 11 5 11 12 0 6 7 20 17 30
9 10 12 18 7 18 -5 0 -18 -13 -27 -30z"/>
<path d="M14256 12081 c-4 -5 -2 -12 3 -15 5 -4 12 -2 15 3 4 5 2 12 -3 15 -5
4 -12 2 -15 -3z"/>
<path d="M13860 12040 c-32 -62 -41 -90 -30 -90 6 0 10 7 10 15 0 9 11 38 25
65 14 28 23 50 20 50 -2 0 -14 -18 -25 -40z"/>
<path d="M14611 12054 c-12 -27 -11 -28 4 -12 10 9 16 21 13 28 -2 7 -10 -1
-17 -16z"/>
<path d="M13985 12059 c-4 -6 -5 -12 -2 -15 2 -3 7 2 10 11 7 17 1 20 -8 4z"/>
<path d="M14301 12061 c-8 -6 -9 -11 -3 -15 6 -3 14 -1 17 5 9 14 2 20 -14 10z"/>
<path d="M14185 12001 c-15 -31 -21 -52 -15 -56 6 -4 10 -3 9 2 -1 4 2 19 7
32 7 23 8 24 16 5 7 -16 8 -16 4 4 -6 30 3 54 17 45 6 -3 7 -1 3 5 -11 18 -14
16 -41 -37z"/>
<path d="M14320 12035 c-10 -13 -15 -13 -21 -3 -4 7 -12 9 -16 4 -4 -5 -2 -11
5 -13 15 -6 16 -33 1 -33 -5 0 -8 -4 -4 -9 5 -9 -12 -26 -27 -26 -3 0 -10 -4
-15 -9 -5 -5 -3 -6 5 -2 6 4 12 5 12 3 0 -9 -32 -67 -40 -72 -5 -3 -7 -12 -3
-20 3 -8 1 -15 -5 -15 -5 0 -12 -10 -15 -22 -12 -45 3 -28 42 48 22 44 54 103
71 132 30 52 34 66 10 37z"/>
<path d="M14704 12028 c-4 -13 -9 -25 -13 -28 -14 -11 -49 -90 -42 -94 4 -3
24 29 44 70 20 41 33 74 28 74 -5 0 -13 -10 -17 -22z"/>
<path d="M13885 12030 c-3 -5 1 -10 10 -10 9 0 13 5 10 10 -3 6 -8 10 -10 10
-2 0 -7 -4 -10 -10z"/>
<path d="M13946 11984 c-14 -26 -26 -50 -26 -55 0 -5 -4 -9 -10 -9 -5 0 -10 5
-10 10 0 6 -4 10 -10 10 -5 0 -10 -7 -10 -16 0 -8 -5 -12 -11 -8 -8 4 -9 0 -4
-15 5 -15 2 -21 -9 -21 -9 0 -16 -4 -16 -10 0 -5 -9 -10 -19 -10 -10 0 -21 -7
-25 -15 -3 -8 -12 -15 -19 -15 -14 0 -62 -99 -52 -108 3 -3 5 1 6 9 0 8 4 4 9
-8 10 -25 55 -32 63 -10 2 6 8 9 12 5 4 -4 3 -13 -1 -20 -5 -7 -9 -15 -10 -18
-11 -37 -18 -50 -25 -50 -4 0 -6 -9 -4 -20 2 -13 -2 -20 -11 -20 -8 0 -12 -4
-9 -10 3 -5 1 -10 -5 -10 -7 0 -9 -7 -6 -16 3 -9 2 -12 -5 -9 -15 10 0 67 23
87 19 16 19 18 3 35 -17 17 -19 17 -29 -1 -6 -10 -17 -25 -24 -34 -12 -15 -12
-14 -7 6 4 12 2 22 -3 22 -12 0 -64 -142 -55 -149 5 -3 9 -12 11 -20 3 -12 0
-12 -12 -2 -12 10 -21 -8 -60 -128 -40 -121 -146 -477 -146 -488 0 -2 4 -2 9
1 5 3 11 0 14 -8 3 -8 -1 -13 -11 -12 -13 1 -26 -41 -69 -214 -29 -118 -54
-233 -55 -255 -2 -22 -6 -42 -9 -45 -9 -7 -40 -161 -99 -480 -51 -281 -57
-327 -41 -301 5 8 7 20 4 28 -3 7 0 13 6 13 6 0 10 -3 10 -7 -3 -20 2 -26 11
-13 8 12 13 13 29 3 17 -10 18 -9 14 10 -4 15 -2 19 5 12 5 -5 12 -19 14 -30
2 -11 14 41 27 115 66 388 167 859 250 1170 37 136 47 188 39 197 -6 8 -8 16
-4 20 3 3 6 1 6 -5 0 -7 4 -12 8 -12 5 0 19 37 32 83 13 45 25 88 28 95 3 8
-1 10 -11 6 -12 -4 -14 -1 -10 15 6 22 19 28 25 10 2 -5 21 41 42 103 58 169
149 393 215 533 62 129 72 159 27 79z m-53 -104 c-3 -11 -7 -20 -9 -20 -2 0
-4 9 -4 20 0 11 4 20 9 20 5 0 7 -9 4 -20z m-26 -42 c-3 -8 -6 -5 -6 6 -1 11
2 17 5 13 3 -3 4 -12 1 -19z m-11 -30 c-4 -27 -29 -78 -38 -78 -6 0 -4 8 3 17
12 14 12 16 -6 11 -17 -4 -20 0 -20 24 0 30 12 38 21 13 9 -22 24 -18 24 5 0
11 4 20 9 20 5 0 8 -6 7 -12z m-72 -83 c3 -9 0 -12 -9 -9 -7 3 -16 12 -19 19
-3 9 0 12 9 9 7 -3 16 -12 19 -19z m-64 -175 c0 -5 -5 -10 -11 -10 -5 0 -7 5
-4 10 3 6 8 10 11 10 2 0 4 -4 4 -10z m14 -65 c-4 -8 -8 -15 -10 -15 -2 0 -4
7 -4 15 0 8 4 15 10 15 5 0 7 -7 4 -15z m-114 -109 c0 -8 -7 -16 -15 -20 -13
-4 -14 -2 -5 14 13 23 20 26 20 6z m0 -46 c0 -5 -10 -10 -22 -10 -19 0 -20 2
-8 10 19 13 30 13 30 0z m50 -26 c0 -16 -26 -8 -33 11 -4 9 1 11 14 8 10 -3
19 -11 19 -19z m-87 -9 c-3 -9 -8 -14 -10 -11 -3 3 -2 9 2 15 9 16 15 13 8 -4z
m-3 -51 c0 -8 -4 -14 -10 -14 -5 0 -10 9 -10 21 0 11 5 17 10 14 6 -3 10 -13
10 -21z m37 -36 c-3 -8 -6 -5 -6 6 -1 11 2 17 5 13 3 -3 4 -12 1 -19z m-66
-31 c-10 -9 -11 -8 -5 6 3 10 9 15 12 12 3 -3 0 -11 -7 -18z m19 -49 c0 -4
-12 -8 -26 -8 -14 0 -23 4 -19 9 6 11 45 10 45 -1z m50 8 c0 -2 -7 -7 -16 -10
-8 -3 -12 -2 -9 4 6 10 25 14 25 6z m-98 -81 c3 -14 1 -23 -6 -22 -6 1 -12 -9
-14 -23 -2 -14 -8 -29 -13 -34 -5 -6 -7 -1 -4 13 4 22 28 91 31 91 1 0 4 -11
6 -25z m63 -15 c3 -5 -1 -10 -10 -10 -9 0 -13 5 -10 10 3 6 8 10 10 10 2 0 7
-4 10 -10z m-5 -30 c0 -5 -6 -10 -14 -10 -8 0 -18 5 -21 10 -3 6 3 10 14 10
12 0 21 -4 21 -10z m-15 -40 c-3 -5 -10 -10 -16 -10 -5 0 -9 5 -9 10 0 6 7 10
16 10 8 0 12 -4 9 -10z m-12 -52 c-3 -15 -9 -25 -14 -22 -5 3 -7 10 -4 15 4 5
1 9 -4 9 -6 0 -11 -9 -11 -20 0 -13 -7 -20 -20 -20 -11 0 -20 5 -20 11 0 5 -4
7 -10 4 -5 -3 -10 3 -10 14 0 28 16 27 23 -1 5 -19 21 -22 17 -3 -2 12 47 48
57 41 1 0 -1 -13 -4 -28z m-54 -70 c0 -7 -4 -22 -9 -33 -7 -17 -9 -15 -9 13
-1 17 4 32 9 32 6 0 10 -6 9 -12z m-41 -23 c-3 -3 -9 2 -12 12 -6 14 -5 15 5
6 7 -7 10 -15 7 -18z m12 -55 c-20 -13 -33 -13 -25 0 3 6 14 10 23 10 15 0 15
-2 2 -10z m-3 -40 c1 -11 -2 -20 -8 -20 -10 0 -12 23 -2 33 9 9 9 10 10 -13z
m33 6 c0 -3 -4 -8 -10 -11 -5 -3 -10 -1 -10 4 0 6 5 11 10 11 6 0 10 -2 10 -4z
m-90 -366 c0 -5 -4 -10 -10 -10 -5 0 -10 5 -10 10 0 6 5 10 10 10 6 0 10 -4
10 -10z m-52 -67 c-2 -9 -10 -18 -18 -20 -12 -4 -13 -3 -1 5 7 5 10 15 7 21
-4 6 -2 11 4 11 6 0 10 -8 8 -17z m23 -66 c-10 -9 -11 -8 -5 6 3 10 9 15 12
12 3 -3 0 -11 -7 -18z"/>
<path d="M14240 12008 c0 -4 4 -8 9 -8 6 0 12 4 15 8 3 5 -1 9 -9 9 -8 0 -15
-4 -15 -9z"/>
<path d="M14586 12003 c-6 -14 -5 -15 5 -6 7 7 10 15 7 18 -3 3 -9 -2 -12 -12z"/>
<path d="M13865 11979 c-4 -5 -4 -13 -1 -16 3 -4 6 0 6 8 0 11 2 11 10 -1 6
-9 10 -10 10 -3 0 17 -17 25 -25 12z"/>
<path d="M14557 11945 c-20 -42 -20 -45 -7 -45 6 0 10 5 10 12 0 6 7 19 14 27
8 9 12 22 7 29 -5 8 -13 0 -24 -23z"/>
<path d="M13792 11895 c-26 -54 -27 -62 -7 -41 8 8 15 22 15 30 0 9 5 16 11
16 5 0 7 -4 4 -10 -9 -15 4 -12 21 4 20 20 18 31 -3 15 -15 -13 -16 -12 -11 9
10 37 -7 25 -30 -23z"/>
<path d="M14090 11820 c-33 -66 -60 -123 -60 -127 1 -5 7 3 14 16 l14 24 0
-29 c0 -39 -15 -64 -37 -64 -27 0 -36 -31 -15 -47 10 -7 21 -13 26 -13 4 0 8
-7 8 -15 0 -12 -4 -11 -20 5 -26 26 -34 25 -49 -7 -9 -19 -9 -29 -2 -31 16 -5
13 -28 -5 -43 -15 -12 -16 -11 -10 11 6 21 5 22 -4 7 -14 -21 -5 -38 16 -30 8
3 14 2 13 -3 -4 -23 3 -34 21 -34 24 0 25 -11 5 -50 -9 -17 -11 -30 -6 -30 5
0 14 12 19 28 5 15 13 35 17 45 4 10 3 17 -4 17 -7 0 -21 9 -33 20 -21 19 -21
20 -3 40 10 11 21 17 26 15 4 -3 10 -1 14 5 11 17 25 11 25 -10 0 -12 -10 -24
-22 -30 -13 -5 -17 -9 -10 -9 7 -1 10 -5 7 -11 -3 -5 -2 -10 3 -10 5 0 22 30
37 68 16 37 43 97 62 134 37 75 38 78 22 78 -5 0 -8 -4 -5 -9 3 -5 -1 -14 -9
-21 -18 -15 -19 -9 -4 24 6 13 17 23 23 22 6 -2 8 -1 4 1 -12 7 -10 31 4 53
18 28 1 37 -21 11 -10 -12 -25 -20 -32 -19 -9 2 -15 -9 -17 -29 -2 -18 1 -33
6 -33 5 0 13 -16 16 -35 6 -28 2 -44 -18 -78 -14 -23 -26 -36 -26 -29 0 7 -7
20 -15 29 -8 8 -13 19 -10 24 10 15 25 10 25 -8 0 -13 3 -14 12 -5 9 9 8 15
-8 27 -19 15 -19 15 0 30 17 13 17 15 3 15 -24 0 -14 48 30 142 32 67 39 76
52 65 14 -11 14 -10 2 6 -7 9 -15 17 -17 17 -2 0 -31 -54 -64 -120z m50 -55
c-7 -8 -16 -12 -21 -9 -13 8 -1 24 18 24 13 0 13 -3 3 -15z m-104 -153 c1 -7
0 -8 -3 -2 -2 5 -9 10 -14 10 -6 0 -7 -5 -3 -12 4 -7 3 -8 -5 -4 -14 9 -4 29
12 23 6 -2 12 -9 13 -15z m48 -47 c-4 -8 -9 -15 -13 -15 -4 0 -8 7 -8 15 0 8
6 15 13 15 8 0 11 -6 8 -15z m-84 -10 c0 -8 -8 -15 -17 -14 -11 0 -13 3 -5 6
6 2 10 9 6 14 -3 5 0 9 5 9 6 0 11 -7 11 -15z"/>
<path d="M14197 11920 c3 -11 9 -20 14 -20 5 0 9 9 9 20 0 11 -6 20 -14 20 -9
0 -12 -7 -9 -20z"/>
<path d="M14482 11763 c-66 -170 -85 -230 -76 -244 4 -7 3 -9 -3 -6 -6 4 -28
-61 -55 -161 -62 -225 -70 -261 -61 -275 10 -17 13 -57 3 -57 -5 0 -10 10 -12
23 -2 12 -11 -16 -21 -62 -9 -46 -15 -87 -12 -91 3 -5 0 -10 -6 -12 -6 -2 -11
-29 -12 -60 -1 -31 -5 -54 -8 -52 -14 8 -77 -452 -109 -792 -19 -203 -35 -540
-22 -440 6 38 12 51 30 57 17 7 22 5 22 -9 0 -10 9 -24 19 -32 11 -7 17 -18
14 -23 -3 -6 -1 -7 5 -3 7 4 12 31 12 59 0 29 7 139 16 246 11 130 13 196 6
200 -7 4 -8 26 -2 61 l8 55 2 -50 c1 -33 8 5 21 110 79 677 211 1230 396 1653
3 6 1 12 -5 12 -5 0 -15 -13 -22 -30 -12 -29 -30 -41 -30 -19 0 5 -4 7 -10 4
-5 -3 -10 -1 -10 4 0 6 -6 11 -14 11 -8 0 -13 -6 -12 -12 1 -17 -55 -161 -61
-155 -2 3 5 28 16 57 11 29 17 58 14 63 -3 6 -1 7 5 3 11 -6 17 12 13 37 -1 4
5 15 14 23 17 17 20 34 6 34 -5 0 -32 -57 -59 -127z m88 -12 c0 -6 -4 -12 -8
-15 -5 -3 -9 1 -9 9 0 8 4 15 9 15 4 0 8 -4 8 -9z m-10 -41 c0 -5 -5 -10 -11
-10 -5 0 -7 5 -4 10 3 6 8 10 11 10 2 0 4 -4 4 -10z m-67 -57 c-7 -2 -19 -2
-25 0 -7 3 -2 5 12 5 14 0 19 -2 13 -5z m43 -8 c-1 -9 -5 -15 -9 -15 -4 0 -12
0 -17 0 -6 0 -5 6 2 15 17 19 27 19 24 0z m-74 -30 c-4 -25 -17 -26 -17 -2 -1
9 13 26 21 27 1 0 -1 -11 -4 -25z m23 -5 c-3 -5 -1 -10 4 -10 6 0 11 5 11 12
0 6 2 9 5 6 3 -3 3 -13 -1 -22 -5 -13 -9 -14 -20 -5 -12 10 -11 29 2 29 3 0 2
-4 -1 -10z m-5 -60 c0 -5 -4 -10 -10 -10 -5 0 -10 5 -10 10 0 6 5 10 10 10 6
0 10 -4 10 -10z m10 -54 c0 -9 -30 -14 -35 -6 -4 6 3 10 14 10 12 0 21 -2 21
-4z m-26 -52 c3 -8 2 -12 -4 -9 -6 3 -10 10 -10 16 0 14 7 11 14 -7z m-13 -37
c-6 -8 -7 -18 -3 -22 4 -5 2 -5 -5 -1 -6 3 -16 -2 -22 -11 -5 -10 -12 -15 -16
-11 -3 3 4 17 17 31 24 26 49 37 29 14z m-55 -213 c-4 -9 -13 -14 -21 -10 -11
4 -15 -2 -15 -20 0 -16 5 -24 13 -21 6 2 11 10 9 16 -1 7 2 10 8 6 8 -5 7 -12
-2 -23 -7 -10 -13 -19 -15 -21 -1 -2 -9 4 -18 12 -20 21 -32 77 -16 77 7 0 9
-5 5 -12 -6 -9 -3 -9 9 0 9 8 21 11 27 7 6 -4 10 -3 9 2 -3 16 3 28 8 15 3 -7
2 -20 -1 -28z m-61 -55 c4 -6 5 -12 2 -15 -7 -7 -37 7 -37 17 0 13 27 11 35
-2z m-27 -43 c-7 -8 -15 -12 -17 -11 -5 6 10 25 20 25 5 0 4 -6 -3 -14z m68
-19 c-7 -31 -36 -31 -36 0 0 27 16 31 23 6 3 -13 5 -11 6 6 0 13 4 22 7 18 4
-3 4 -17 0 -30z m-91 -103 c-1 -21 -6 -39 -12 -41 -7 -3 -9 8 -6 29 3 18 5 38
6 45 1 30 12 1 12 -33z m62 27 c6 -1 9 -10 5 -23 -5 -21 -5 -21 -16 3 l-10 24
-4 -30 c-6 -48 -22 -54 -22 -8 0 34 3 41 18 38 9 -2 22 -4 29 -4z m-30 -136
c0 -8 -4 -12 -9 -9 -5 3 -6 10 -3 15 9 13 12 11 12 -6z m-70 -17 c-3 -8 -6 -5
-6 6 -1 11 2 17 5 13 3 -3 4 -12 1 -19z m-22 -147 c3 -5 2 -12 -3 -15 -5 -3
-9 1 -9 9 0 17 3 19 12 6z m-30 -180 c3 -5 2 -12 -3 -15 -5 -3 -9 1 -9 9 0 17
3 19 12 6z m45 -76 c0 -2 -7 -6 -16 -9 -9 -3 -12 -2 -9 5 4 5 1 16 -5 24 -6 8
-9 19 -5 25 4 7 12 1 21 -15 8 -15 14 -29 14 -30z m-51 -26 c-20 -12 -22 -4
-7 20 11 18 14 19 16 5 2 -9 -2 -20 -9 -25z m-43 -340 c-9 -24 -8 -32 4 -39
13 -8 12 -10 -2 -10 -11 0 -15 -5 -12 -14 3 -8 1 -17 -5 -21 -14 -8 -14 -6 0
73 7 37 15 59 19 52 4 -7 2 -25 -4 -41z m54 0 c0 -27 -17 -23 -22 5 -4 17 -1
23 9 19 7 -3 13 -14 13 -24z m7 -96 c-3 -10 -5 -4 -5 12 0 17 2 24 5 18 2 -7
2 -21 0 -30z m-53 -14 c13 11 19 11 31 1 21 -18 18 -48 -6 -55 -20 -7 -20 -7
3 -27 20 -19 21 -20 3 -13 -11 4 -25 8 -31 8 -6 0 -9 9 -6 19 2 11 -1 18 -9
18 -9 0 -15 13 -16 33 -2 22 0 28 7 18 7 -12 11 -12 24 -2z m8 -130 c-3 -20
-7 -26 -12 -19 -6 10 -7 28 -1 48 1 1 5 2 9 2 5 0 6 -14 4 -31z m31 6 c-3 -9
-8 -14 -10 -11 -3 3 -2 9 2 15 9 16 15 13 8 -4z"/>
<path d="M14140 11870 c0 -5 5 -10 10 -10 6 0 10 5 10 10 0 6 -4 10 -10 10 -5
0 -10 -4 -10 -10z"/>
<path d="M14175 11870 c-3 -5 1 -10 9 -10 9 0 16 5 16 10 0 6 -4 10 -9 10 -6
0 -13 -4 -16 -10z"/>
<path d="M13706 11694 c-8 -22 1 -31 16 -16 9 9 9 15 1 23 -7 7 -12 5 -17 -7z"/>
<path d="M14016 11664 c-5 -14 -4 -15 9 -4 17 14 19 20 6 20 -5 0 -12 -7 -15
-16z"/>
<path d="M13926 11454 c-4 -9 -4 -19 -1 -22 2 -3 7 3 11 12 4 9 4 19 1 22 -2
3 -7 -3 -11 -12z"/>
<path d="M13936 11427 c-8 -18 -16 -25 -16 -17 -1 8 -7 0 -15 -18 -10 -22 -12
-40 -6 -51 6 -10 6 -23 1 -31 -5 -8 -7 -17 -4 -21 2 -4 0 -10 -6 -14 -6 -3
-10 4 -10 17 -1 21 -1 22 -11 4 -13 -21 8 -51 26 -38 18 13 35 51 29 67 -4 10
0 15 10 15 9 0 16 -5 16 -11 0 -5 5 -7 11 -4 6 4 8 13 5 20 -3 8 2 19 10 25 8
7 14 18 14 24 0 6 -5 4 -10 -4 -6 -9 -10 -10 -10 -3 0 6 7 19 16 27 8 9 11 16
5 16 -5 0 -16 7 -24 15 -13 12 -17 10 -31 -18z m24 -52 c0 -2 -7 -8 -15 -15
-12 -10 -15 -10 -15 2 0 8 7 15 15 15 8 0 15 -1 15 -2z m-40 -21 c0 -8 -4 -12
-10 -9 -5 3 -10 10 -10 16 0 5 5 9 10 9 6 0 10 -7 10 -16z"/>
<path d="M13986 11335 c-3 -9 -6 -22 -5 -28 0 -7 5 -1 10 12 5 13 8 26 5 28
-2 2 -6 -3 -10 -12z"/>
<path d="M13940 11290 c0 -11 5 -20 10 -20 6 0 8 -12 5 -27 -5 -23 -4 -24 4
-7 10 23 3 74 -10 74 -5 0 -9 -9 -9 -20z"/>
<path d="M13850 11253 c0 -6 -3 -18 -6 -26 -3 -9 1 -17 8 -19 10 -2 12 -10 7
-28 l-7 -25 -8 25 c-7 22 -9 19 -26 -30 -10 -29 -16 -55 -14 -57 2 -2 8 10 14
26 12 35 27 42 19 9 -4 -12 -1 -28 5 -35 8 -10 5 -13 -12 -13 -16 0 -20 -4
-16 -16 3 -9 6 -18 6 -20 0 -2 7 -4 16 -4 9 0 12 -5 8 -12 -5 -7 -3 -8 5 -4 7
5 10 14 7 22 -3 9 1 14 12 14 11 0 13 3 6 8 -8 5 -5 13 7 26 19 19 19 19 19 0
0 -11 -6 -29 -14 -39 -8 -11 -11 -25 -9 -32 3 -8 0 -13 -8 -11 -11 3 -15 -17
-9 -54 1 -7 19 39 41 102 50 146 55 167 25 107 l-23 -48 -7 40 c-3 24 -15 46
-27 54 -11 8 -16 16 -10 18 7 3 7 9 1 19 -6 9 -10 10 -10 3z m33 -83 c3 -11 1
-18 -4 -14 -5 3 -9 12 -9 20 0 20 7 17 13 -6z m-7 -45 c1 -8 -5 -15 -13 -15
-12 0 -13 3 -4 13 6 8 9 17 6 20 -3 4 -2 5 2 2 4 -3 8 -12 9 -20z"/>
<path d="M13781 11039 c-7 -23 -10 -44 -7 -47 3 -3 6 3 6 14 0 15 2 16 10 4 6
-10 9 -2 8 28 0 23 -1 42 -3 42 -1 0 -7 -18 -14 -41z"/>
<path d="M13717 10819 c-80 -293 -151 -612 -143 -642 2 -9 1 -15 -3 -13 -6 4
-91 -425 -91 -457 0 -5 4 -5 10 -2 6 3 7 -1 4 -9 -4 -10 3 -20 20 -27 20 -10
30 -9 49 4 20 13 26 33 46 148 13 74 26 148 29 164 5 27 4 29 -12 16 -14 -12
-16 -12 -10 3 3 9 11 16 18 16 7 0 27 76 50 193 21 105 63 289 93 407 31 118
56 224 57 235 0 11 4 22 8 25 3 3 10 19 14 35 4 17 3 27 -2 22 -5 -5 -10 -13
-10 -18 -1 -5 -2 -14 -3 -20 0 -5 -6 -7 -13 -3 -8 5 -9 0 -6 -14 4 -12 1 -25
-4 -29 -7 -3 -8 -1 -4 5 4 7 2 12 -3 12 -14 0 -14 -17 -1 -25 15 -9 12 -34 -5
-31 -8 1 -22 10 -33 19 -10 9 -21 15 -24 12 -3 -3 -3 5 -1 19 3 13 16 35 29
47 28 26 30 36 9 36 -8 0 -15 -7 -16 -16 0 -12 -2 -12 -8 3 -5 13 -18 -22 -44
-115z m64 -12 c-1 -12 -15 -9 -19 4 -3 6 1 10 8 8 6 -3 11 -8 11 -12z m-40
-240 c-10 -9 -11 -8 -5 6 3 10 9 15 12 12 3 -3 0 -11 -7 -18z m-44 -19 c-3 -8
-6 -5 -6 6 -1 11 2 17 5 13 3 -3 4 -12 1 -19z m-33 -33 c-4 -8 -8 -15 -10 -15
-2 0 -4 7 -4 15 0 8 4 15 10 15 5 0 7 -7 4 -15z m56 -49 c0 -15 -27 -29 -40
-21 -5 3 -7 12 -3 20 7 19 43 20 43 1z m-63 -32 c-3 -3 -12 -4 -19 -1 -8 3 -5
6 6 6 11 1 17 -2 13 -5z m18 -24 c3 -5 1 -10 -4 -10 -6 0 -11 5 -11 10 0 6 2
10 4 10 3 0 8 -4 11 -10z m-35 -35 c0 -8 -4 -15 -10 -15 -5 0 -7 7 -4 15 4 8
8 15 10 15 2 0 4 -7 4 -15z m7 -43 c-17 -2 -25 -8 -21 -15 5 -9 4 -9 -6 0 -19
17 -4 31 27 24 l28 -6 -28 -3z m16 -107 c-3 -9 -8 -14 -10 -11 -3 3 -2 9 2 15
9 16 15 13 8 -4z m-33 -59 c0 -3 -4 -8 -10 -11 -5 -3 -10 -1 -10 4 0 6 5 11
10 11 6 0 10 -2 10 -4z m-40 -20 c0 -3 -4 -8 -10 -11 -5 -3 -10 -1 -10 4 0 6
5 11 10 11 6 0 10 -2 10 -4z m-33 -118 c-3 -8 -6 -5 -6 6 -1 11 2 17 5 13 3
-3 4 -12 1 -19z m-42 -296 c-3 -3 0 -11 6 -19 17 -20 5 -16 -14 5 -15 16 -15
19 -2 19 8 0 13 -3 10 -5z m39 -24 c-5 -9 -2 -9 9 1 22 17 23 -2 1 -23 -14
-15 -44 -22 -44 -11 0 11 25 45 33 45 4 0 5 -6 1 -12z"/>
<path d="M13685 10460 c-3 -6 1 -7 9 -4 18 7 21 14 7 14 -6 0 -13 -4 -16 -10z"/>
<path d="M13893 10145 c-15 -10 -24 -33 -32 -77 -15 -91 -81 -555 -81 -575 0
-11 8 -6 25 17 14 19 23 39 21 46 -2 6 0 17 5 25 7 11 9 11 9 -3 0 -10 7 -18
16 -18 8 0 13 4 9 9 -3 5 -1 13 5 16 6 4 8 16 4 27 -4 13 -2 18 4 14 6 -4 9
-23 7 -44 -2 -20 -4 -50 -4 -65 -1 -20 -5 -26 -13 -21 -10 5 -10 4 -1 -6 7 -8
14 -12 16 -9 6 7 91 602 90 628 -1 24 -26 51 -48 51 -6 0 -20 -7 -32 -15z m42
-215 c-3 -5 -10 -10 -16 -10 -5 0 -9 5 -9 10 0 6 7 10 16 10 8 0 12 -4 9 -10z
m-25 -185 c0 -8 -4 -15 -10 -15 -5 0 -7 7 -4 15 4 8 8 15 10 15 2 0 4 -7 4
-15z m-32 -60 c0 -19 -4 -35 -9 -35 -4 0 -5 7 -2 17 4 10 2 14 -4 10 -6 -4
-14 0 -17 9 -3 8 -2 12 4 9 6 -3 13 1 16 9 9 24 12 19 12 -19z m19 13 c-3 -8
-6 -5 -6 6 -1 11 2 17 5 13 3 -3 4 -12 1 -19z m0 -55 c-3 -10 -5 -4 -5 12 0
17 2 24 5 18 2 -7 2 -21 0 -30z"/>
<path d="M14100 9556 c0 -9 5 -16 10 -16 6 0 10 4 10 9 0 6 -4 13 -10 16 -5 3
-10 -1 -10 -9z"/>
<path d="M13262 9525 c0 -16 2 -22 5 -12 2 9 2 23 0 30 -3 6 -5 -1 -5 -18z"/>
<path d="M13160 9524 c0 -8 5 -12 10 -9 6 3 10 10 10 16 0 5 -4 9 -10 9 -5 0
-10 -7 -10 -16z"/>
<path d="M14115 9530 c-3 -5 1 -10 9 -10 9 0 16 5 16 10 0 6 -4 10 -9 10 -6 0
-13 -4 -16 -10z"/>
<path d="M13217 9504 c-8 -8 1 -24 12 -24 4 0 8 7 8 15 0 16 -9 20 -20 9z"/>
<path d="M14128 9488 c9 -9 15 -9 24 0 9 9 7 12 -12 12 -19 0 -21 -3 -12 -12z"/>
<path d="M14168 9471 c-4 -13 -11 -20 -17 -16 -6 3 -11 1 -11 -4 0 -6 7 -11
15 -11 11 0 13 -8 8 -32 -3 -18 -6 -35 -5 -38 0 -3 0 -18 1 -35 2 -30 2 -30
12 -6 5 14 8 57 7 95 -2 46 -5 63 -10 47z"/>
<path d="M13146 9429 c-5 -35 -3 -56 6 -67 11 -13 11 -15 -3 -10 -13 5 -18 -2
-22 -35 -3 -23 -2 -46 4 -51 8 -9 15 30 10 57 -1 5 3 6 8 3 13 -9 19 24 9 58
-4 16 -4 34 -1 40 10 15 12 56 3 56 -4 0 -10 -23 -14 -51z"/>
<path d="M13252 9460 c0 -14 2 -19 5 -12 2 6 2 18 0 25 -3 6 -5 1 -5 -13z"/>
<path d="M14072 9393 c0 -49 3 -72 5 -53 3 19 10 41 16 49 9 11 9 13 0 8 -8
-5 -11 5 -10 38 1 25 -1 45 -5 45 -5 0 -7 -39 -6 -87z"/>
<path d="M13862 9445 c3 -14 2 -25 -2 -25 -7 0 -6 -24 1 -80 2 -19 17 65 18
103 1 15 -4 27 -10 27 -7 0 -9 -10 -7 -25z"/>
<path d="M13220 9449 c0 -5 5 -7 10 -4 6 3 10 8 10 11 0 2 -4 4 -10 4 -5 0
-10 -5 -10 -11z"/>
<path d="M13770 9425 c-2 -22 -5 -53 -6 -70 -1 -16 -5 -37 -8 -47 -4 -9 -6
-31 -3 -50 3 -30 4 -29 5 9 2 41 16 65 25 41 2 -8 8 -9 13 -4 5 5 4 11 -3 13
-22 8 -15 32 6 26 15 -4 20 0 18 16 -1 22 -26 30 -29 9 -1 -7 -4 12 -8 42 -7
54 -7 54 -10 15z"/>
<path d="M13820 9430 c0 -5 4 -10 9 -10 6 0 13 5 16 10 3 6 -1 10 -9 10 -9 0
-16 -4 -16 -10z"/>
<path d="M13241 9412 c-1 -15 -5 -21 -13 -16 -10 5 -10 4 -1 -6 17 -18 26 -8
20 22 l-4 23 -2 -23z"/>
<path d="M13174 9405 c5 -11 9 -29 10 -40 0 -11 3 -22 6 -25 12 -12 30 -51 31
-67 2 -24 16 35 18 71 1 24 -1 27 -14 16 -13 -11 -14 -10 -9 5 5 13 4 16 -4
11 -7 -4 -12 -2 -12 4 0 6 -8 19 -17 28 -16 16 -16 16 -9 -3z"/>
<path d="M13442 9378 c-7 -7 -12 -16 -12 -22 0 -5 7 -1 16 10 13 16 15 17 10
1 -4 -14 -1 -16 19 -11 16 4 25 2 25 -6 0 -6 5 -8 12 -4 7 5 9 2 6 -7 -3 -8
-2 -23 3 -34 6 -15 8 -10 8 21 1 46 -12 64 -49 64 -14 0 -31 -5 -38 -12z"/>
<path d="M14763 9365 c-80 -35 -179 -164 -223 -289 -24 -70 -24 -72 -7 -57 10
8 14 7 14 -4 0 -8 -8 -15 -17 -15 -13 0 -20 -14 -28 -57 -23 -126 -25 -146
-11 -141 21 7 36 40 22 45 -7 3 -13 18 -13 35 0 21 6 31 20 35 20 5 28 23 10
23 -5 0 -6 8 -3 17 4 9 8 12 10 6 2 -6 13 -9 23 -6 15 4 20 0 20 -15 0 -12 5
-24 10 -27 12 -8 23 17 24 56 1 16 3 29 7 29 3 0 13 23 24 52 10 28 37 80 61
114 23 34 40 65 36 69 -4 4 -2 5 3 4 6 -2 30 7 54 20 39 20 46 21 75 9 17 -7
34 -12 39 -10 4 1 6 -1 5 -5 -1 -5 1 -18 5 -29 5 -15 14 -20 27 -17 19 5 17
33 -2 33 -5 0 -6 -5 -2 -12 4 -7 3 -8 -4 -4 -6 4 -9 13 -6 21 4 8 10 12 16 9
5 -3 9 2 8 12 -4 32 -1 44 11 44 5 0 7 -4 4 -10 -3 -5 -1 -18 5 -27 9 -15 10
-14 4 6 -4 17 -3 22 7 19 8 -3 13 -15 12 -27 -2 -11 2 -21 7 -21 6 0 10 -7 10
-16 0 -8 5 -12 10 -9 6 4 10 -5 10 -19 0 -19 -5 -26 -20 -26 -11 0 -20 -5 -20
-11 0 -6 9 -8 20 -4 21 7 28 -9 10 -20 -6 -4 -8 -11 -5 -16 4 -5 -2 -9 -12 -9
-15 0 -16 -2 -3 -10 12 -7 18 -2 29 23 28 68 -5 157 -80 212 -37 28 -58 33
-39 10 11 -13 10 -14 -4 -9 -9 3 -16 12 -16 20 0 19 -93 18 -137 -1z m99 -18
c-2 -9 2 -17 8 -17 6 0 9 4 5 9 -9 16 9 20 23 5 10 -11 8 -15 -13 -20 -14 -3
-31 -1 -39 5 -10 8 -16 9 -21 1 -3 -5 -1 -10 4 -10 6 0 11 -5 11 -11 0 -6 -6
-9 -14 -6 -8 3 -22 -1 -33 -9 -17 -14 -16 -14 7 -4 23 10 24 10 6 -4 -23 -19
-32 -14 -38 19 -4 17 -1 25 8 25 8 0 14 -5 14 -11 0 -5 5 -7 10 -4 7 4 2 14
-11 26 -12 10 -17 19 -11 19 6 0 14 -4 17 -10 3 -5 12 -10 18 -9 9 0 9 2 0 6
-25 10 -12 23 20 20 24 -2 31 -7 29 -20z m81 -60 c-4 -6 -10 -2 -14 9 -4 10
-8 13 -8 6 -1 -7 -6 -10 -11 -7 -8 5 -7 12 1 22 11 13 14 13 26 -3 7 -9 9 -22
6 -27z m-193 -8 c0 -6 -4 -7 -10 -4 -5 3 -10 11 -10 16 0 6 5 7 10 4 6 -3 10
-11 10 -16z m-28 -9 c10 -10 14 -22 9 -24 -4 -3 -13 6 -19 19 -14 30 -12 31
10 5z m-42 0 c0 -5 -6 -10 -12 -10 -10 0 -10 -3 0 -9 10 -6 6 -11 -17 -19
l-32 -11 23 29 c24 30 38 37 38 20z m37 -67 c-16 -16 -17 -16 -17 0 0 10 5 15
10 12 6 -3 10 -1 10 6 0 7 3 9 7 5 4 -3 -1 -14 -10 -23z m-64 0 c-7 -3 -13
-13 -13 -24 0 -12 -7 -19 -20 -19 -11 0 -20 -6 -20 -14 0 -9 7 -12 20 -9 11 3
20 0 20 -6 0 -6 5 -11 11 -11 5 0 7 5 3 12 -5 7 -3 8 6 3 10 -6 10 -11 -3 -20
-9 -7 -14 -15 -10 -19 4 -4 0 -4 -10 0 -9 3 -23 2 -30 -4 -8 -7 -18 -6 -31 4
-19 13 -18 14 10 15 29 1 29 1 4 9 -14 4 -19 8 -12 9 6 1 11 4 10 9 -5 18 14
48 39 63 16 9 30 14 33 11 3 -3 -1 -7 -7 -9z m41 -38 c-7 -16 -30 -20 -38 -6
-7 11 4 21 25 21 12 0 16 -5 13 -15z m-70 -123 c-4 -18 -11 -32 -16 -32 -6 0
-8 -6 -5 -14 3 -8 -1 -20 -9 -26 -9 -9 -14 -9 -14 -2 0 7 -7 9 -17 5 -13 -5
-15 -2 -10 11 4 10 7 22 7 27 0 5 9 9 20 9 11 0 21 5 21 10 3 20 4 25 13 38
12 20 17 9 10 -26z"/>
<path d="M13420 9320 c0 -13 7 -20 20 -20 11 0 20 5 20 10 0 6 -7 10 -16 10
-8 0 -12 5 -9 10 3 6 1 10 -4 10 -6 0 -11 -9 -11 -20z"/>
<path d="M13832 9320 c-7 -11 -8 -20 -3 -20 9 0 24 30 18 36 -1 2 -8 -6 -15
-16z"/>
<path d="M13172 9284 c-11 -12 -10 -17 3 -30 8 -9 13 -21 9 -27 -3 -7 2 -3 10
7 19 24 20 40 4 54 -9 7 -17 6 -26 -4z"/>
<path d="M13847 9293 c-4 -3 -7 -18 -7 -32 0 -44 -12 -73 -26 -67 -8 3 -14 0
-14 -5 0 -6 9 -9 19 -6 13 3 21 -1 24 -12 2 -9 7 15 11 52 8 67 6 84 -7 70z"/>
<path d="M14158 9253 c-1 -27 0 -70 3 -98 5 -39 6 -28 7 48 2 102 -4 130 -10
50z"/>
<path d="M13410 9244 c0 -14 4 -23 9 -20 5 3 7 15 4 26 -7 28 -13 25 -13 -6z"/>
<path d="M13430 9254 c0 -8 5 -12 10 -9 6 4 8 11 5 16 -9 14 -15 11 -15 -7z"/>
<path d="M13512 9250 c0 -14 2 -19 5 -12 2 6 2 18 0 25 -3 6 -5 1 -5 -13z"/>
<path d="M14066 9238 c-7 -26 -8 -234 -1 -227 6 7 18 249 12 249 -2 0 -7 -10
-11 -22z"/>
<path d="M13106 9189 c-7 -52 -1 -74 13 -51 7 12 5 91 -3 99 -2 2 -6 -20 -10
-48z"/>
<path d="M13210 9227 c0 -9 0 -18 -1 -19 -7 -16 -24 -147 -19 -141 10 11 33
163 26 170 -3 4 -6 -1 -6 -10z"/>
<path d="M13750 9220 c-1 -3 -4 -15 -5 -28 -1 -15 1 -20 7 -14 6 6 8 18 5 28
-3 11 -6 17 -7 14z"/>
<path d="M13498 9180 c2 -16 6 -30 8 -30 2 0 4 14 4 30 0 17 -4 30 -8 30 -5 0
-7 -13 -4 -30z"/>
<path d="M13400 9185 c0 -8 2 -15 4 -15 2 0 6 7 10 15 3 8 1 15 -4 15 -6 0
-10 -7 -10 -15z"/>
<path d="M14941 9172 c-20 -48 -63 -87 -173 -159 -54 -35 -98 -64 -98 -66 0
-1 12 -3 27 -4 15 0 21 2 14 7 -9 5 -1 14 24 29 33 19 37 20 31 4 -5 -16 -4
-16 9 1 8 11 18 17 21 13 4 -4 15 3 25 14 12 14 24 19 38 14 12 -4 21 -2 21 4
0 6 -7 11 -15 11 -17 0 -20 16 -5 25 6 3 10 1 10 -4 0 -6 4 -11 9 -11 6 0 8 9
6 20 -4 18 9 26 38 21 4 0 6 2 6 7 -4 24 2 42 13 36 7 -5 8 -3 3 6 -4 7 -2 16
5 20 6 4 10 16 8 26 -3 15 -6 12 -17 -14z"/>
<path d="M13468 9163 c7 -3 16 -2 19 1 4 3 -2 6 -13 5 -11 0 -14 -3 -6 -6z"/>
<path d="M13832 9100 c0 -19 2 -27 5 -17 2 9 2 25 0 35 -3 9 -5 1 -5 -18z"/>
<path d="M13089 9070 c-4 -30 -3 -64 2 -75 7 -18 8 -18 9 5 0 20 2 22 10 10 7
-11 10 -6 9 20 0 28 -2 31 -9 15 -6 -15 -9 -8 -11 30 l-4 50 -6 -55z"/>
<path d="M13445 9110 c3 -5 8 -10 11 -10 2 0 4 5 4 10 0 6 -5 10 -11 10 -5 0
-7 -4 -4 -10z"/>
<path d="M13492 9100 c0 -14 2 -19 5 -12 2 6 2 18 0 25 -3 6 -5 1 -5 -13z"/>
<path d="M13732 9095 c0 -16 2 -22 5 -12 2 9 2 23 0 30 -3 6 -5 -1 -5 -18z"/>
<path d="M13422 9080 c0 -14 2 -19 5 -12 2 6 2 18 0 25 -3 6 -5 1 -5 -13z"/>
<path d="M14987 9082 c10 -6 9 -13 -3 -30 -8 -12 -20 -22 -25 -22 -6 0 -22 -9
-36 -20 -14 -11 -30 -17 -36 -13 -6 3 -7 1 -3 -5 5 -8 0 -11 -16 -8 -16 2 -22
9 -20 21 3 17 3 17 -15 0 -13 -13 -14 -20 -5 -23 7 -2 9 -9 5 -14 -4 -7 2 -9
16 -5 18 4 20 3 10 -9 -6 -7 -14 -12 -18 -10 -9 6 -22 -3 -41 -28 -13 -18 -13
-19 0 -11 83 48 194 135 210 164 7 13 4 17 -13 18 -14 1 -17 -1 -10 -5z"/>
<path d="M13482 9030 c0 -19 2 -27 5 -17 2 9 2 25 0 35 -3 9 -5 1 -5 -18z"/>
<path d="M13381 9039 c-1 -9 7 -23 17 -30 15 -12 16 -12 6 1 -6 8 -14 22 -17
30 -5 13 -6 12 -6 -1z"/>
<path d="M13823 9015 c0 -22 2 -30 4 -17 2 12 2 30 0 40 -3 9 -5 -1 -4 -23z"/>
<path d="M13182 9020 c0 -14 2 -19 5 -12 2 6 2 18 0 25 -3 6 -5 1 -5 -13z"/>
<path d="M13410 9031 c0 -6 4 -13 10 -16 6 -3 7 1 4 9 -7 18 -14 21 -14 7z"/>
<path d="M13722 9010 c0 -14 2 -19 5 -12 2 6 2 18 0 25 -3 6 -5 1 -5 -13z"/>
<path d="M12100 8984 c38 -8 90 -9 90 -2 0 4 -24 7 -52 7 -29 -1 -46 -3 -38
-5z"/>
<path d="M12027 8955 c-20 -14 -37 -28 -37 -31 0 -3 12 3 28 14 15 10 36 24
47 30 11 6 15 12 10 12 -6 0 -27 -11 -48 -25z"/>
<path d="M12209 8971 c11 -7 11 -9 0 -14 -8 -3 -3 -5 11 -4 17 1 24 -3 22 -12
-2 -8 3 -11 12 -8 7 3 29 -8 47 -24 38 -33 51 -38 24 -9 -23 25 -105 80 -119
80 -6 0 -5 -4 3 -9z"/>
<path d="M13070 8957 c0 -15 4 -27 9 -27 6 0 8 10 6 21 -6 33 -15 36 -15 6z"/>
<path d="M13372 8950 c0 -19 2 -27 5 -17 2 9 2 25 0 35 -3 9 -5 1 -5 -18z"/>
<path d="M13468 8960 c-4 -14 -8 -38 -8 -53 0 -16 -4 -26 -10 -22 -5 3 -10 1
-10 -5 0 -6 -10 -10 -22 -8 -13 2 -22 9 -20 16 1 6 -5 12 -14 12 -19 0 -14
-20 8 -33 43 -28 92 22 86 87 -3 30 -3 30 -10 6z"/>
<path d="M13161 8953 c-1 -10 -2 -33 -2 -51 0 -21 -4 -30 -11 -26 -7 4 -8 2
-4 -4 15 -24 28 -11 24 23 -2 19 0 35 4 35 4 0 8 9 8 20 0 25 -16 27 -19 3z"/>
<path d="M13813 8900 c0 -25 2 -35 4 -22 2 12 2 32 0 45 -2 12 -4 2 -4 -23z"/>
<path d="M14631 8920 c-13 -11 -19 -20 -14 -20 6 0 18 9 28 20 23 25 17 25
-14 0z"/>
<path d="M12210 8910 c-13 -8 -12 -10 3 -10 9 0 17 5 17 10 0 12 -1 12 -20 0z"/>
<path d="M13060 8896 c0 -14 4 -27 9 -30 4 -3 8 8 7 24 -1 36 -16 41 -16 6z"/>
<path d="M13100 8909 c0 -5 5 -7 10 -4 6 3 10 8 10 11 0 2 -4 4 -10 4 -5 0
-10 -5 -10 -11z"/>
<path d="M13712 8895 c0 -16 2 -22 5 -12 2 9 2 23 0 30 -3 6 -5 -1 -5 -18z"/>
<path d="M12135 8890 c-16 -6 -13 -8 15 -12 42 -7 44 -6 22 8 -9 6 -26 8 -37
4z"/>
<path d="M13100 8870 c0 -5 5 -10 11 -10 5 0 7 5 4 10 -3 6 -8 10 -11 10 -2 0
-4 -4 -4 -10z"/>
<path d="M14520 8870 c0 -5 5 -10 10 -10 6 0 10 5 10 10 0 6 -4 10 -10 10 -5
0 -10 -4 -10 -10z"/>
<path d="M12069 8853 c-13 -16 -12 -17 4 -4 9 7 17 15 17 17 0 8 -8 3 -21 -13z"/>
<path d="M12365 8830 c14 -23 23 -46 19 -52 -4 -6 -3 -8 4 -4 6 3 15 -2 21
-11 6 -10 11 -14 11 -10 0 10 -68 117 -75 117 -3 0 6 -18 20 -40z"/>
<path d="M14700 8845 c-18 -13 -37 -22 -42 -19 -5 3 -7 2 -6 -3 5 -14 -50 -74
-57 -63 -7 12 -25 4 -25 -11 0 -6 4 -7 10 -4 6 3 7 -1 4 -9 -8 -22 -21 -20
-29 3 -3 11 -12 22 -20 25 -19 7 -19 1 1 -19 15 -15 15 -17 -1 -35 -16 -17
-15 -19 2 -23 17 -4 17 -5 0 -6 -10 0 -20 6 -23 14 -4 8 -12 15 -20 15 -8 0
-14 4 -14 10 0 5 7 7 15 4 8 -4 15 -2 15 3 0 5 -9 9 -20 10 -13 1 -20 -4 -20
-17 0 -27 27 -50 60 -50 23 0 35 9 59 43 36 52 75 94 121 129 44 35 36 37 -10
3z"/>
<path d="M11944 8826 c-3 -20 -2 -52 4 -73 9 -37 10 -36 7 17 -1 30 2 60 7 67
5 7 5 14 -1 17 -6 4 -13 -9 -17 -28z"/>
<path d="M3005 8836 c-176 -56 -317 -214 -383 -428 -37 -119 -47 -257 -28
-399 36 -284 150 -638 277 -861 81 -143 203 -294 312 -386 38 -33 39 -33 48
-135 26 -267 118 -597 233 -831 174 -358 409 -628 801 -922 142 -107 517 -365
920 -634 522 -348 697 -481 863 -654 138 -145 210 -253 276 -416 40 -97 70
-221 116 -465 106 -574 231 -931 430 -1228 124 -185 271 -317 451 -401 142
-67 247 -90 404 -89 402 1 772 211 1335 758 263 255 397 366 630 522 603 402
1303 661 2360 873 1178 236 2130 332 4040 405 705 27 1074 66 1571 166 769
154 1480 402 2204 769 423 215 743 409 1125 683 504 362 1016 833 1429 1317
63 74 116 137 118 139 3 5 92 -34 593 -259 419 -189 599 -272 1255 -580 226
-106 511 -238 635 -295 124 -57 266 -122 315 -145 50 -23 232 -105 405 -182
173 -77 401 -179 505 -225 105 -47 242 -106 305 -133 63 -26 261 -110 440
-185 179 -76 348 -145 375 -155 28 -10 129 -50 225 -90 262 -109 398 -159 452
-166 26 -4 48 -12 48 -18 0 -6 5 -4 10 4 14 22 13 110 -2 110 -22 0 -961 384
-1418 580 -671 288 -1394 616 -2600 1180 -261 122 -608 282 -770 355 -588 265
-791 355 -798 355 -4 0 -64 -66 -133 -147 -861 -1012 -1893 -1768 -3119 -2287
-630 -267 -1246 -446 -1910 -556 -386 -63 -717 -91 -1365 -115 -464 -17 -1244
-57 -1570 -80 -797 -58 -1677 -176 -2386 -321 -1054 -214 -1725 -456 -2323
-837 -272 -173 -427 -298 -741 -599 -477 -458 -781 -653 -1100 -709 -99 -17
-282 -7 -370 21 -355 112 -595 410 -781 968 -58 173 -104 365 -154 637 -76
418 -131 566 -286 772 -172 230 -384 403 -939 770 -551 365 -997 678 -1155
811 -504 423 -768 932 -829 1599 -8 90 -9 92 -47 124 -83 69 -202 199 -256
280 -134 201 -243 481 -309 794 -28 131 -33 336 -10 425 46 184 155 331 286
386 88 36 217 6 278 -67 18 -21 149 -237 292 -481 249 -424 264 -447 345 -528
93 -94 253 -206 480 -335 176 -100 356 -187 675 -328 143 -63 539 -239 880
-392 684 -306 798 -353 1120 -460 624 -208 1029 -273 1629 -262 455 8 813 59
1286 183 419 109 705 218 1340 509 201 92 550 252 775 355 575 263 821 377
1481 686 l70 33 0 128 c0 70 -2 101 -4 68 l-3 -61 -382 -178 c-210 -99 -391
-181 -402 -184 -18 -5 -18 -4 2 22 23 28 103 224 102 248 0 7 -13 -20 -28 -60
-15 -41 -33 -77 -40 -81 -7 -5 -12 -11 -12 -15 4 -27 -1 -46 -11 -44 -8 2 -12
-5 -10 -19 2 -13 -5 -27 -18 -36 -15 -11 -18 -16 -8 -19 18 -6 -80 -136 -109
-144 -30 -8 -63 4 -71 26 -8 22 29 37 -647 -273 -1278 -586 -1366 -624 -1675
-727 -423 -141 -882 -239 -1315 -282 -196 -19 -695 -16 -880 6 -390 45 -772
140 -1218 302 -217 79 -310 118 -942 401 -269 121 -641 287 -825 368 -501 222
-772 366 -1012 537 -138 97 -187 151 -270 291 -39 67 -132 226 -206 352 -289
493 -295 502 -375 548 -91 53 -215 71 -302 43z"/>
<path d="M13115 8839 c-11 -16 -1 -19 13 -3 7 8 8 14 3 14 -5 0 -13 -5 -16
-11z"/>
<path d="M13147 8835 c-4 -8 -4 -21 -1 -29 3 -8 1 -17 -5 -20 -8 -5 -6 -54 3
-64 2 -1 6 25 10 59 7 61 4 84 -7 54z"/>
<path d="M13803 8805 c0 -27 2 -38 4 -22 2 15 2 37 0 50 -2 12 -4 0 -4 -28z"/>
<path d="M13052 8810 c0 -19 2 -27 5 -17 2 9 2 25 0 35 -3 9 -5 1 -5 -18z"/>
<path d="M14600 8831 c0 -6 4 -13 10 -16 6 -3 7 1 4 9 -7 18 -14 21 -14 7z"/>
<path d="M12045 8820 c-3 -5 -1 -10 4 -10 6 0 11 5 11 10 0 6 -2 10 -4 10 -3
0 -8 -4 -11 -10z"/>
<path d="M11965 8810 c-3 -5 -1 -10 4 -10 6 0 11 5 11 10 0 6 -2 10 -4 10 -3
0 -8 -4 -11 -10z"/>
<path d="M13700 8805 c0 -8 4 -15 10 -15 5 0 7 7 4 15 -4 8 -8 15 -10 15 -2 0
-4 -7 -4 -15z"/>
<path d="M12260 8806 c0 -2 8 -10 18 -17 15 -13 16 -12 3 4 -13 16 -21 21 -21
13z"/>
<path d="M12050 8770 c1 -8 7 -24 15 -34 19 -25 19 -16 0 20 -8 16 -15 22 -15
14z"/>
<path d="M13080 8769 c0 -6 -9 -8 -20 -4 -15 5 -20 2 -20 -14 0 -11 5 -23 12
-27 8 -5 9 -2 5 9 -3 10 -2 17 3 17 5 0 11 -8 13 -17 4 -15 5 -14 6 3 0 11 6
25 13 32 9 9 9 12 0 12 -7 0 -12 -5 -12 -11z"/>
<path d="M13100 8749 c0 -5 5 -7 10 -4 6 3 10 8 10 11 0 2 -4 4 -10 4 -5 0
-10 -5 -10 -11z"/>
<path d="M12318 8713 c9 -18 18 -30 21 -26 4 5 11 12 16 17 6 6 4 7 -7 3 -10
-3 -19 0 -22 9 -9 23 -7 27 10 20 8 -3 12 -2 9 3 -3 6 -14 9 -24 8 -18 -1 -18
-3 -3 -34z"/>
<path d="M12420 8731 c0 -6 4 -13 10 -16 6 -3 7 1 4 9 -7 18 -14 21 -14 7z"/>
<path d="M13697 8713 c-9 -9 -9 -63 1 -63 4 0 7 16 7 35 0 19 0 35 -1 35 0 0
-4 -3 -7 -7z"/>
<path d="M13786 8698 c-9 -36 -7 -78 4 -78 6 0 10 23 10 50 0 54 -4 63 -14 28z"/>
<path d="M11966 8697 c3 -10 9 -15 12 -12 3 3 0 11 -7 18 -10 9 -11 8 -5 -6z"/>
<path d="M12090 8706 c0 -3 9 -10 20 -16 11 -6 20 -8 20 -6 0 3 -9 10 -20 16
-11 6 -20 8 -20 6z"/>
<path d="M13032 8675 c1 -16 -3 -38 -7 -48 -4 -10 -2 -28 4 -40 11 -22 11 -22
7 2 -3 13 -2 31 3 40 4 9 4 30 0 46 l-8 30 1 -30z"/>
<path d="M13124 8660 c-6 -19 -8 -46 -5 -60 4 -21 6 -17 13 20 10 58 4 86 -8
40z"/>
<path d="M11990 8668 c0 -3 9 -15 20 -28 11 -13 20 -19 20 -13 0 5 -9 18 -20
28 -11 10 -20 16 -20 13z"/>
<path d="M13720 8652 c0 -5 7 -9 15 -9 8 0 12 4 9 9 -3 4 -9 8 -15 8 -5 0 -9
-4 -9 -8z"/>
<path d="M14140 8626 c0 -2 8 -10 18 -17 15 -13 16 -12 3 4 -13 16 -21 21 -21
13z"/>
<path d="M14063 8550 c0 -41 2 -58 4 -37 2 20 2 54 0 75 -2 20 -4 3 -4 -38z"/>
<path d="M13779 8588 c-3 -13 -1 -41 2 -63 5 -35 6 -33 8 23 1 63 -4 81 -10
40z"/>
<path d="M12277 8589 c7 -7 15 -10 18 -7 3 3 -2 9 -12 12 -14 6 -15 5 -6 -5z"/>
<path d="M13074 8582 c3 -5 0 -12 -6 -15 -7 -2 -10 -7 -7 -11 3 -4 12 0 18 8
9 11 9 16 0 22 -7 4 -9 3 -5 -4z"/>
<path d="M13684 8566 c-3 -8 -4 -27 -2 -43 3 -23 5 -20 9 15 5 43 2 53 -7 28z"/>
<path d="M14163 8500 c0 -47 2 -66 4 -42 2 23 2 61 0 85 -2 23 -4 4 -4 -43z"/>
<path d="M12320 8566 c0 -2 8 -10 18 -17 15 -13 16 -12 3 4 -13 16 -21 21 -21
13z"/>
<path d="M13711 8554 c0 -11 3 -14 6 -6 3 7 2 16 -1 19 -3 4 -6 -2 -5 -13z"/>
<path d="M13006 8501 c-4 -35 -5 -66 -2 -69 3 -3 6 7 6 22 0 15 4 35 8 44 5 9
6 28 2 42 -5 19 -8 9 -14 -39z"/>
<path d="M13107 8537 c-4 -10 -7 -37 -6 -60 l1 -42 9 45 c10 52 8 87 -4 57z"/>
<path d="M12220 8506 c0 -2 7 -7 16 -10 8 -3 12 -2 9 4 -6 10 -25 14 -25 6z"/>
<path d="M12290 8459 c58 -46 82 -59 40 -21 -25 23 -49 41 -55 41 -5 0 1 -8
15 -20z"/>
<path d="M12511 8454 c0 -11 3 -14 6 -6 3 7 2 16 -1 19 -3 4 -6 -2 -5 -13z"/>
<path d="M13017 8420 c-3 -13 0 -20 9 -20 8 0 14 9 14 20 0 11 -4 20 -9 20 -5
0 -11 -9 -14 -20z"/>
<path d="M13090 8422 c0 -6 -7 -9 -15 -6 -8 4 -15 1 -15 -5 0 -6 7 -11 16 -11
8 0 12 -5 9 -10 -4 -6 -7 -31 -7 -55 0 -25 -4 -48 -9 -51 -6 -3 -7 -13 -4 -23
2 -9 1 -30 -3 -46 -5 -17 -6 -41 -2 -55 5 -18 8 -8 13 39 4 34 4 67 1 72 -3 5
-1 9 4 9 10 0 27 138 18 148 -3 3 -6 0 -6 -6z"/>
<path d="M12990 8396 c0 -13 -3 -44 -6 -70 -6 -42 -5 -46 14 -46 19 0 20 3 10
36 -5 20 -7 51 -5 70 3 19 1 34 -4 34 -5 0 -9 -11 -9 -24z"/>
<path d="M13673 8355 c0 -38 2 -53 4 -32 2 20 2 52 0 70 -2 17 -4 1 -4 -38z"/>
<path d="M13773 8355 c0 -38 2 -53 4 -32 2 20 2 52 0 70 -2 17 -4 1 -4 -38z"/>
<path d="M12522 8380 c0 -19 2 -27 5 -17 2 9 2 25 0 35 -3 9 -5 1 -5 -18z"/>
<path d="M13040 8359 c0 -18 2 -19 15 -9 8 7 15 16 15 21 0 5 -7 9 -15 9 -9 0
-15 -9 -15 -21z"/>
<path d="M14071 8364 c0 -11 3 -14 6 -6 3 7 2 16 -1 19 -3 4 -6 -2 -5 -13z"/>
<path d="M12410 8344 c0 -5 7 -18 15 -28 8 -11 15 -16 15 -10 0 5 -7 18 -15
28 -8 11 -15 16 -15 10z"/>
<path d="M14173 8310 c0 -25 2 -35 4 -22 2 12 2 32 0 45 -2 12 -4 2 -4 -23z"/>
<path d="M14072 8310 c0 -19 2 -27 5 -17 2 9 2 25 0 35 -3 9 -5 1 -5 -18z"/>
<path d="M12516 8319 c3 -6 0 -16 -7 -21 -12 -8 -11 -9 1 -5 18 4 27 37 10 37
-6 0 -8 -5 -4 -11z"/>
<path d="M13670 8265 c0 -8 2 -15 4 -15 2 0 6 7 10 15 3 8 1 15 -4 15 -6 0
-10 -7 -10 -15z"/>
<path d="M12968 8228 c-2 -21 -3 -38 -1 -38 10 0 19 39 13 55 -6 16 -8 12 -12
-17z"/>
<path d="M13764 8025 c0 -115 2 -161 3 -102 2 59 2 154 0 210 -1 56 -3 8 -3
-108z"/>
<path d="M13663 8145 c0 -33 2 -45 4 -27 2 18 2 45 0 60 -2 15 -4 0 -4 -33z"/>
<path d="M14183 8160 c0 -25 2 -35 4 -22 2 12 2 32 0 45 -2 12 -4 2 -4 -23z"/>
<path d="M14085 8115 c4 -44 10 -82 12 -85 3 -3 3 30 0 74 -4 43 -9 81 -13 85
-3 3 -3 -30 1 -74z"/>
<path d="M13051 8120 c-1 -8 -4 -26 -7 -40 -5 -19 -4 -22 5 -14 7 6 11 24 8
40 -2 16 -5 22 -6 14z"/>
<path d="M11700 8110 l-35 -7 33 -2 c17 0 32 -6 32 -12 0 -5 5 -7 10 -4 6 4 7
12 4 18 -5 8 -3 8 7 0 16 -16 49 -17 49 -2 0 6 9 9 20 6 11 -3 20 -1 20 4 0
10 -89 10 -140 -1z"/>
<path d="M12952 8090 c-1 -19 -5 -46 -8 -60 -5 -19 -4 -22 5 -14 8 7 11 30 8
60 -2 37 -4 41 -5 14z"/>
<path d="M11858 8103 c6 -2 10 -9 7 -13 -3 -5 -1 -11 5 -15 5 -3 10 0 10 9 0
8 6 17 13 19 6 3 -1 5 -18 5 -16 0 -24 -2 -17 -5z"/>
<path d="M14192 8075 c0 -16 2 -22 5 -12 2 9 2 23 0 30 -3 6 -5 -1 -5 -18z"/>
<path d="M11946 8074 c-6 -15 -9 -16 -15 -5 -5 8 -11 9 -15 3 -3 -5 3 -20 14
-32 11 -13 20 -27 20 -31 0 -5 7 -6 15 -3 12 5 10 10 -8 24 -21 18 -21 19 -4
37 15 15 19 16 26 4 5 -7 14 -10 20 -7 6 4 11 3 11 -2 0 -5 6 -9 13 -9 6 0 23
-3 37 -6 14 -4 5 2 -19 13 -68 31 -87 34 -95 14z"/>
<path d="M11590 8070 c-9 -6 -10 -10 -3 -10 6 0 15 5 18 10 8 12 4 12 -15 0z"/>
<path d="M11539 8033 l-24 -26 27 19 c15 10 28 22 28 27 0 12 -5 8 -31 -20z"/>
<path d="M13042 8025 c0 -16 2 -22 5 -12 2 9 2 23 0 30 -3 6 -5 -1 -5 -18z"/>
<path d="M12097 8029 c7 -7 15 -10 18 -7 3 3 -2 9 -12 12 -14 6 -15 5 -6 -5z"/>
<path d="M11775 8020 l-60 -7 68 -1 c43 -1 66 2 62 8 -3 6 -7 9 -8 8 -1 -1
-29 -4 -62 -8z"/>
<path d="M11878 8022 c-10 -2 -18 -8 -18 -13 0 -13 27 -11 35 2 9 13 4 16 -17
11z"/>
<path d="M11695 8010 c-3 -5 -1 -10 4 -10 6 0 11 5 11 10 0 6 -2 10 -4 10 -3
0 -8 -4 -11 -10z"/>
<path d="M11630 7977 c-8 -7 -22 -21 -30 -32 -8 -11 0 -7 18 9 29 27 37 37 30
36 -2 0 -10 -6 -18 -13z"/>
<path d="M14100 7980 c0 -9 -62 -45 -165 -94 -183 -88 -175 -79 -159 -177 l6
-36 166 79 c130 63 167 77 174 66 7 -9 8 -7 3 7 -15 44 -24 129 -15 135 5 3 5
11 0 20 -9 13 -10 13 -10 0z"/>
<path d="M13025 7930 c-4 -23 -5 -43 -2 -46 2 -3 7 14 11 37 4 23 5 44 2 46
-2 2 -7 -14 -11 -37z"/>
<path d="M12030 7950 c8 -5 20 -10 25 -10 6 0 3 5 -5 10 -8 5 -19 10 -25 10
-5 0 -3 -5 5 -10z"/>
<path d="M12930 7939 c0 -5 5 -7 10 -4 6 3 10 8 10 11 0 2 -4 4 -10 4 -5 0
-10 -5 -10 -11z"/>
<path d="M12304 7905 c6 -13 13 -20 14 -15 2 6 8 8 13 4 21 -12 7 5 -15 19
-23 16 -23 15 -12 -8z"/>
<path d="M12356 7875 c4 -8 11 -15 16 -15 6 0 5 6 -2 15 -7 8 -14 15 -16 15
-2 0 -1 -7 2 -15z"/>
<path d="M12180 7876 c0 -3 9 -10 19 -16 15 -7 22 -7 27 2 4 7 4 10 -1 6 -4
-4 -16 -3 -26 3 -11 5 -19 7 -19 5z"/>
<path d="M12399 7847 c6 -8 7 -18 3 -22 -4 -5 -1 -5 6 -1 10 6 10 11 1 22 -6
8 -14 14 -16 14 -3 0 0 -6 6 -13z"/>
<path d="M14222 7835 c0 -16 2 -22 5 -12 2 9 2 23 0 30 -3 6 -5 -1 -5 -18z"/>
<path d="M12912 7830 c0 -14 2 -19 5 -12 2 6 2 18 0 25 -3 6 -5 1 -5 -13z"/>
<path d="M13006 7835 c-3 -8 -1 -15 4 -15 6 0 10 7 10 15 0 8 -2 15 -4 15 -2
0 -6 -7 -10 -15z"/>
<path d="M15625 7829 c-20 -5 -9 -6 30 -2 33 3 62 7 64 9 8 7 -63 2 -94 -7z"/>
<path d="M15803 7833 c9 -2 25 -2 35 0 9 3 1 5 -18 5 -19 0 -27 -2 -17 -5z"/>
<path d="M12450 7805 c13 -14 26 -25 28 -25 3 0 -5 11 -18 25 -13 14 -26 25
-28 25 -3 0 5 -11 18 -25z"/>
<path d="M12190 7799 c28 -5 48 -5 54 1 7 7 -9 10 -44 9 l-55 -1 45 -9z"/>
<path d="M12990 7762 c-8 -26 -15 -51 -15 -57 0 -5 -4 -13 -10 -17 -6 -5 -3
-8 6 -8 12 0 20 17 29 60 16 74 9 87 -10 22z"/>
<path d="M15518 7803 c7 -3 16 -2 19 1 4 3 -2 6 -13 5 -11 0 -14 -3 -6 -6z"/>
<path d="M12090 7793 c0 -5 11 -8 24 -8 13 0 22 3 19 8 -2 4 -13 7 -24 7 -10
0 -19 -3 -19 -7z"/>
<path d="M12906 7787 c3 -10 9 -15 12 -12 3 3 0 11 -7 18 -10 9 -11 8 -5 -6z"/>
<path d="M14130 7781 c0 -25 6 -27 13 -6 4 8 2 17 -3 20 -6 4 -10 -3 -10 -14z"/>
<path d="M12048 7783 c6 -2 18 -2 25 0 6 3 1 5 -13 5 -14 0 -19 -2 -12 -5z"/>
<path d="M15438 7783 c7 -3 16 -2 19 1 4 3 -2 6 -13 5 -11 0 -14 -3 -6 -6z"/>
<path d="M11945 7760 c-54 -17 -56 -19 -22 -17 20 0 37 5 37 9 0 4 8 8 18 8 9
0 24 5 32 10 21 14 4 11 -65 -10z"/>
<path d="M15385 7770 c-13 -6 -15 -9 -5 -9 8 0 22 4 30 9 18 12 2 12 -25 0z"/>
<path d="M12498 7760 c29 -33 3 -88 -38 -77 -11 3 -20 1 -20 -4 0 -16 46 -9
63 9 22 24 22 56 0 73 -15 11 -16 11 -5 -1z"/>
<path d="M16020 7767 c0 -2 15 -16 33 -33 l32 -29 -29 33 c-28 30 -36 37 -36
29z"/>
<path d="M12891 7744 c0 -11 3 -14 6 -6 3 7 2 16 -1 19 -3 4 -6 -2 -5 -13z"/>
<path d="M15315 7741 c-22 -11 -35 -20 -29 -20 12 -1 74 28 74 35 0 6 -1 6
-45 -15z"/>
<path d="M11850 7736 c0 -2 7 -7 16 -10 8 -3 12 -2 9 4 -6 10 -25 14 -25 6z"/>
<path d="M14141 7728 c1 -7 5 -24 9 -38 8 -24 8 -24 9 7 1 17 -3 35 -9 38 -5
3 -10 0 -9 -7z"/>
<path d="M14243 7708 c1 -21 5 -38 9 -38 4 0 8 -8 9 -17 0 -10 2 -13 5 -8 2 6
-2 30 -10 55 l-15 45 2 -37z"/>
<path d="M15658 7733 c12 -2 32 -2 45 0 12 2 2 4 -23 4 -25 0 -35 -2 -22 -4z"/>
<path d="M15808 7733 c6 -2 18 -2 25 0 6 3 1 5 -13 5 -14 0 -19 -2 -12 -5z"/>
<path d="M11808 7723 c6 -2 18 -2 25 0 6 3 1 5 -13 5 -14 0 -19 -2 -12 -5z"/>
<path d="M15608 7723 c7 -3 16 -2 19 1 4 3 -2 6 -13 5 -11 0 -14 -3 -6 -6z"/>
<path d="M11691 7715 c8 -7 78 -9 85 -2 4 4 -14 7 -41 7 -27 0 -46 -2 -44 -5z"/>
<path d="M12170 7710 l-35 -7 38 -2 c20 0 37 4 37 9 0 6 -1 9 -2 9 -2 -1 -19
-5 -38 -9z"/>
<path d="M12304 7709 c-3 -5 6 -9 20 -9 31 0 34 6 6 13 -11 3 -23 1 -26 -4z"/>
<path d="M15208 7693 c-27 -14 -46 -28 -44 -30 2 -2 19 6 39 17 19 11 39 20
43 19 21 -3 35 2 29 11 -9 14 -14 13 -67 -17z"/>
<path d="M11845 7699 c-11 -17 1 -21 15 -4 8 9 8 15 2 15 -6 0 -14 -5 -17 -11z"/>
<path d="M12098 7693 c6 -2 18 -2 25 0 6 3 1 5 -13 5 -14 0 -19 -2 -12 -5z"/>
<path d="M12370 7696 c0 -2 11 -6 25 -8 13 -3 22 -1 19 3 -5 9 -44 13 -44 5z"/>
<path d="M12001 7674 c-24 -7 -48 -11 -52 -8 -5 3 -9 0 -9 -6 0 -8 11 -9 33
-5 41 10 77 23 77 30 0 3 -1 5 -2 4 -2 -1 -23 -7 -47 -15z"/>
<path d="M15965 7670 c10 -11 20 -20 23 -20 3 0 -3 9 -13 20 -10 11 -20 20
-23 20 -3 0 3 -9 13 -20z"/>
<path d="M11907 7649 c7 -7 15 -10 18 -7 3 3 -2 9 -12 12 -14 6 -15 5 -6 -5z"/>
<path d="M15108 7633 c-31 -21 -38 -32 -38 -58 0 -18 6 -37 13 -42 16 -12 87
-16 87 -5 0 5 -11 7 -25 4 -14 -2 -25 0 -25 6 0 5 -7 9 -16 8 -9 0 -19 5 -21
12 -3 7 1 11 9 10 9 -2 12 5 10 21 -3 17 5 31 25 47 37 31 27 29 -19 -3z"/>
<path d="M11845 7634 c-32 -14 -17 -17 25 -5 14 4 20 9 15 13 -6 3 -23 -1 -40
-8z"/>
<path d="M12860 7639 c0 -5 5 -7 10 -4 6 3 10 8 10 11 0 2 -4 4 -10 4 -5 0
-10 -5 -10 -11z"/>
<path d="M13773 7610 c0 -25 2 -35 4 -22 2 12 2 32 0 45 -2 12 -4 2 -4 -23z"/>
<path d="M14160 7640 c0 -5 5 -10 10 -10 6 0 10 5 10 10 0 6 -4 10 -10 10 -5
0 -10 -4 -10 -10z"/>
<path d="M11708 7613 c18 -2 45 -2 60 0 15 2 0 4 -33 4 -33 0 -45 -2 -27 -4z"/>
<path d="M15346 7611 c-3 -5 0 -11 8 -14 15 -6 26 1 26 15 0 11 -27 10 -34 -1z"/>
<path d="M13672 7585 c0 -16 2 -22 5 -12 2 9 2 23 0 30 -3 6 -5 -1 -5 -18z"/>
<path d="M15420 7595 c19 -7 42 -13 50 -13 8 0 -1 6 -20 13 -19 7 -42 13 -50
13 -8 0 1 -6 20 -13z"/>
<path d="M14281 7590 c0 -8 4 -22 9 -30 12 -18 12 -2 0 25 -6 13 -9 15 -9 5z"/>
<path d="M14181 7580 c0 -8 4 -24 9 -35 l9 -20 0 20 c0 11 -4 27 -9 35 -9 13
-10 13 -9 0z"/>
<path d="M15505 7568 c11 -6 25 -18 31 -26 6 -8 16 -12 22 -8 8 5 12 -2 12
-18 0 -14 5 -26 11 -26 5 0 8 4 5 9 -3 5 1 12 10 15 10 4 13 2 8 -6 -5 -8 0
-9 16 -5 17 4 23 1 27 -14 5 -16 8 -18 15 -7 8 10 11 10 15 0 2 -6 8 -10 13
-7 5 3 15 -2 24 -10 8 -8 17 -11 20 -6 3 4 -49 34 -115 65 -110 51 -163 72
-114 44z"/>
<path d="M12826 7543 c-6 -14 -5 -15 5 -6 7 7 10 15 7 18 -3 3 -9 -2 -12 -12z"/>
<path d="M14300 7535 c0 -5 5 -17 10 -25 5 -8 10 -10 10 -5 0 6 -5 17 -10 25
-5 8 -10 11 -10 5z"/>
<path d="M15235 7529 c29 -11 94 -11 75 0 -8 6 -32 9 -55 9 -30 -1 -35 -3 -20
-9z"/>
<path d="M15345 7520 c-3 -5 -1 -10 4 -10 6 0 11 5 11 10 0 6 -2 10 -4 10 -3
0 -8 -4 -11 -10z"/>
<path d="M13681 7498 c1 -13 5 -36 9 -53 7 -24 8 -20 7 22 -1 29 -5 53 -9 53
-5 0 -7 -10 -7 -22z"/>
<path d="M13782 7495 c0 -16 2 -22 5 -12 2 9 2 23 0 30 -3 6 -5 -1 -5 -18z"/>
<path d="M14200 7513 c0 -4 5 -15 10 -23 8 -13 10 -13 10 2 0 9 -4 20 -10 23
-5 3 -10 3 -10 -2z"/>
<path d="M16105 7500 c-4 -12 -5 -24 -2 -27 3 -2 8 5 12 17 4 12 5 24 2 27 -3
2 -8 -5 -12 -17z"/>
<path d="M12785 7469 c-5 -8 -4 -10 3 -5 7 4 13 2 13 -3 1 -6 2 -17 3 -23 1
-7 -2 -19 -7 -25 -7 -9 -5 -13 6 -13 10 0 14 9 12 31 -3 37 -19 57 -30 38z"/>
<path d="M15960 7453 c-30 -21 -43 -24 -95 -20 -33 2 -69 8 -80 12 -19 9 -19
8 -2 -10 14 -14 35 -18 83 -19 35 -1 64 2 64 6 0 4 10 10 22 14 22 7 54 32 47
38 -2 2 -20 -8 -39 -21z"/>
<path d="M14226 7457 c3 -10 9 -15 12 -12 3 3 0 11 -7 18 -10 9 -11 8 -5 -6z"/>
<path d="M12840 7450 c0 -5 5 -10 10 -10 6 0 10 5 10 10 0 6 -4 10 -10 10 -5
0 -10 -4 -10 -10z"/>
<path d="M13791 7444 c0 -11 3 -14 6 -6 3 7 2 16 -1 19 -3 4 -6 -2 -5 -13z"/>
<path d="M12749 7413 c-13 -16 -12 -17 4 -4 9 7 17 15 17 17 0 8 -8 3 -21 -13z"/>
<path d="M16035 7386 c-22 -22 -31 -34 -20 -29 22 12 71 62 64 65 -2 2 -22
-15 -44 -36z"/>
<path d="M13701 7395 c0 -11 4 -29 9 -40 8 -18 9 -18 9 5 0 14 -4 32 -9 40 -8
12 -10 12 -9 -5z"/>
<path d="M15773 7403 c-15 -5 -17 -23 -4 -23 5 0 11 7 15 15 3 8 4 15 3 14 -1
0 -8 -3 -14 -6z"/>
<path d="M12719 7373 c-13 -16 -12 -17 4 -4 9 7 17 15 17 17 0 8 -8 3 -21 -13z"/>
<path d="M15696 7382 c-14 -3 -8 -9 24 -23 24 -11 45 -17 48 -14 3 3 0 5 -7 5
-7 0 -9 5 -5 12 5 8 2 9 -10 5 -13 -5 -17 -3 -13 6 5 14 -4 16 -37 9z"/>
<path d="M15785 7340 c-3 -5 1 -10 10 -10 9 0 13 5 10 10 -3 6 -8 10 -10 10
-2 0 -7 -4 -10 -10z"/>
<path d="M15855 7340 c3 -6 -1 -7 -9 -4 -9 3 -16 1 -16 -5 0 -13 94 -14 125
-2 17 7 17 8 -8 13 -15 3 -27 1 -27 -3 0 -5 -11 -9 -25 -9 -14 0 -25 5 -25 10
0 6 -5 10 -11 10 -5 0 -7 -4 -4 -10z"/>
<path d="M13735 7299 c-4 -6 -5 -12 -2 -15 2 -3 7 2 10 11 7 17 1 20 -8 4z"/>
<path d="M13840 7295 c0 -5 5 -17 10 -25 5 -8 10 -10 10 -5 0 6 -5 17 -10 25
-5 8 -10 11 -10 5z"/>
<path d="M14479 7238 c14 -16 21 -28 17 -28 -3 0 6 -13 22 -28 16 -15 27 -33
26 -40 -1 -7 0 -8 3 -2 7 15 23 2 17 -14 -3 -7 9 -25 25 -39 18 -14 31 -36 32
-49 0 -22 1 -22 8 -3 5 11 6 27 3 35 -2 8 3 5 12 -8 10 -12 21 -20 26 -17 5 3
11 1 15 -5 3 -5 1 -10 -5 -10 -6 0 -8 -5 -5 -11 4 -6 14 -8 23 -4 8 3 19 0 24
-7 5 -8 8 -9 8 -2 0 7 -24 30 -52 51 -29 22 -91 78 -138 124 -47 46 -74 72
-61 57z m109 -133 c-3 -3 -9 2 -12 12 -6 14 -5 15 5 6 7 -7 10 -15 7 -18z"/>
<path d="M13875 7221 c8 -17 19 -33 25 -36 5 -3 1 10 -11 29 -25 43 -36 48
-14 7z"/>
<path d="M14375 7200 c10 -11 20 -20 23 -20 3 0 -3 9 -13 20 -10 11 -20 20
-23 20 -3 0 3 -9 13 -20z"/>
<path d="M13770 7201 c0 -6 4 -13 10 -16 6 -3 7 1 4 9 -7 18 -14 21 -14 7z"/>
<path d="M13900 7166 c0 -2 7 -7 16 -10 8 -3 12 -2 9 4 -6 10 -25 14 -25 6z"/>
<path d="M13841 7090 c23 -33 49 -66 58 -72 18 -15 15 -10 -52 80 -53 72 -58
65 -6 -8z"/>
<path d="M14460 7106 c46 -50 251 -219 257 -212 7 7 -46 58 -64 61 -10 2 -20
4 -23 4 -3 1 2 5 10 11 8 5 11 12 7 17 -5 4 -12 1 -16 -6 -6 -9 -11 -10 -15
-2 -4 6 -5 15 -2 20 3 4 -4 8 -16 7 -14 -1 -27 8 -34 21 -6 13 -14 20 -18 16
-3 -4 -35 20 -69 53 -51 48 -54 50 -17 10z"/>
<path d="M13933 7129 c9 -6 14 -15 11 -21 -4 -7 -2 -8 5 -4 14 9 -3 36 -23 36
-6 0 -3 -5 7 -11z"/>
<path d="M14005 7050 c27 -27 51 -50 54 -50 3 0 -17 23 -44 50 -27 28 -51 50
-54 50 -3 0 17 -22 44 -50z"/>
<path d="M14740 6996 c0 -2 7 -7 16 -10 8 -3 12 -2 9 4 -6 10 -25 14 -25 6z"/>
<path d="M14083 6974 c0 -7 4 -11 8 -8 4 2 15 -6 23 -18 9 -12 16 -18 16 -13
0 5 12 -3 28 -17 32 -29 92 -71 92 -64 0 2 -37 33 -83 69 -46 35 -84 58 -84
51z"/>
<path d="M13990 6926 c0 -2 8 -10 18 -17 15 -13 16 -12 3 4 -13 16 -21 21 -21
13z"/>
<path d="M14875 6903 c17 -16 33 -28 37 -26 3 2 8 -3 11 -9 2 -7 7 -10 11 -6
4 3 -14 21 -41 38 l-48 33 30 -30z"/>
<path d="M14040 6886 c0 -2 8 -10 18 -17 15 -13 16 -12 3 4 -13 16 -21 21 -21
13z"/>
<path d="M14730 6886 c0 -2 14 -14 30 -26 17 -12 30 -19 30 -16 0 2 -13 14
-30 26 -16 12 -30 19 -30 16z"/>
<path d="M14091 6859 c0 -9 35 -43 82 -78 l82 -63 -50 50 c-27 28 -54 49 -60
49 -5 -1 -9 4 -7 11 1 6 -1 11 -5 11 -21 -3 -32 3 -36 19 -4 14 -5 14 -6 1z"/>
<path d="M14967 6832 c9 -16 22 -28 29 -25 6 2 14 -6 17 -17 3 -12 10 -19 16
-15 6 3 11 -1 11 -10 0 -9 4 -14 9 -11 5 3 24 -11 42 -32 17 -20 39 -41 48
-46 22 -12 -105 118 -152 156 l-37 30 17 -30z"/>
<path d="M14260 6846 c0 -2 8 -10 18 -17 15 -13 16 -12 3 4 -13 16 -21 21 -21
13z"/>
<path d="M14311 6804 c10 -13 10 -17 -1 -24 -9 -5 -5 -8 13 -7 l26 2 -21 23
c-24 25 -37 30 -17 6z"/>
<path d="M14860 6796 c0 -2 7 -9 15 -16 9 -7 15 -8 15 -2 0 5 -7 12 -15 16 -8
3 -15 4 -15 2z"/>
<path d="M14367 6758 c3 -7 35 -40 72 -73 l66 -59 -70 72 c-38 40 -71 72 -72
72 -1 0 0 -6 4 -12z"/>
<path d="M14924 6742 c11 -12 24 -22 30 -21 6 0 6 3 -2 6 -6 2 -9 10 -5 16 3
7 3 9 -2 5 -4 -4 -15 -2 -24 4 -10 8 -9 4 3 -10z"/>
<path d="M12900 6710 c6 -11 13 -20 16 -20 2 0 0 9 -6 20 -6 11 -13 20 -16 20
-2 0 0 -9 6 -20z"/>
<path d="M14285 6690 c16 -16 33 -30 38 -30 6 0 -4 14 -21 30 -18 17 -35 30
-39 30 -4 0 6 -13 22 -30z"/>
<path d="M14315 6710 c-3 -5 -1 -10 4 -10 6 0 11 5 11 10 0 6 -2 10 -4 10 -3
0 -8 -4 -11 -10z"/>
<path d="M15007 6668 c20 -21 39 -38 42 -38 3 0 -10 15 -27 33 -18 18 -30 36
-27 38 3 3 -2 6 -10 6 -10 0 -3 -14 22 -39z"/>
<path d="M14355 6630 c10 -11 20 -20 23 -20 3 0 -3 9 -13 20 -10 11 -20 20
-23 20 -3 0 3 -9 13 -20z"/>
<path d="M14515 6600 c10 -11 20 -20 23 -20 3 0 -3 9 -13 20 -10 11 -20 20
-23 20 -3 0 3 -9 13 -20z"/>
<path d="M14415 6560 c10 -11 20 -20 23 -20 3 0 -3 9 -13 20 -10 11 -20 20
-23 20 -3 0 3 -9 13 -20z"/>
<path d="M15220 6560 c6 -11 13 -20 16 -20 2 0 0 9 -6 20 -6 11 -13 20 -16 20
-2 0 0 -9 6 -20z"/>
<path d="M15265 6480 c9 -16 18 -30 21 -30 2 0 -2 14 -11 30 -9 17 -18 30 -21
30 -2 0 2 -13 11 -30z"/>
<path d="M15320 6356 c0 -8 4 -17 9 -20 5 -4 7 3 4 14 -6 23 -13 26 -13 6z"/>
<path d="M15340 6305 c0 -5 5 -17 10 -25 5 -8 10 -10 10 -5 0 6 -5 17 -10 25
-5 8 -10 11 -10 5z"/>
<path d="M15261 6224 c0 -11 3 -14 6 -6 3 7 2 16 -1 19 -3 4 -6 -2 -5 -13z"/>
<path d="M14781 5944 c0 -11 3 -14 6 -6 3 7 2 16 -1 19 -3 4 -6 -2 -5 -13z"/>
<path d="M15101 5894 c0 -11 3 -14 6 -6 3 7 2 16 -1 19 -3 4 -6 -2 -5 -13z"/>
<path d="M14792 5760 c0 -14 2 -19 5 -12 2 6 2 18 0 25 -3 6 -5 1 -5 -13z"/>
<path d="M15102 5680 c0 -14 2 -19 5 -12 2 6 2 18 0 25 -3 6 -5 1 -5 -13z"/>
<path d="M14781 5604 c0 -11 3 -14 6 -6 3 7 2 16 -1 19 -3 4 -6 -2 -5 -13z"/>
<path d="M15012 5604 c10 -10 20 -16 22 -13 3 3 -5 11 -17 18 -21 13 -21 12
-5 -5z"/>
<path d="M15076 5605 c-11 -8 -15 -15 -9 -15 6 0 16 7 23 15 16 19 11 19 -14
0z"/>
<path d="M14762 5440 c0 -14 2 -19 5 -12 2 6 2 18 0 25 -3 6 -5 1 -5 -13z"/>
<path d="M15309 5353 l-24 -28 28 24 c15 14 27 26 27 28 0 8 -8 1 -31 -24z"/>
<path d="M15054 5345 c-18 -13 -18 -14 4 -8 12 3 25 9 28 14 8 14 -10 11 -32
-6z"/>
<path d="M14939 5253 l-24 -28 28 24 c15 14 27 26 27 28 0 8 -8 1 -31 -24z"/>
<path d="M14701 5184 c0 -11 3 -14 6 -6 3 7 2 16 -1 19 -3 4 -6 -2 -5 -13z"/>
<path d="M14662 5010 c0 -14 2 -19 5 -12 2 6 2 18 0 25 -3 6 -5 1 -5 -13z"/>
<path d="M14926 5015 c-3 -9 -6 -26 -5 -38 1 -14 4 -9 9 13 9 37 7 52 -4 25z"/>
<path d="M14551 4964 c0 -11 3 -14 6 -6 3 7 2 16 -1 19 -3 4 -6 -2 -5 -13z"/>
<path d="M14651 4954 c0 -11 3 -14 6 -6 3 7 2 16 -1 19 -3 4 -6 -2 -5 -13z"/>
<path d="M14812 4915 c0 -16 2 -22 5 -12 2 9 2 23 0 30 -3 6 -5 -1 -5 -18z"/>
<path d="M14642 4905 c0 -16 2 -22 5 -12 2 9 2 23 0 30 -3 6 -5 -1 -5 -18z"/>
<path d="M14912 4905 c0 -16 2 -22 5 -12 2 9 2 23 0 30 -3 6 -5 -1 -5 -18z"/>
<path d="M14531 4844 c0 -11 3 -14 6 -6 3 7 2 16 -1 19 -3 4 -6 -2 -5 -13z"/>
<path d="M14631 4834 c0 -11 3 -14 6 -6 3 7 2 16 -1 19 -3 4 -6 -2 -5 -13z"/>
<path d="M14621 4794 c0 -11 3 -14 6 -6 3 7 2 16 -1 19 -3 4 -6 -2 -5 -13z"/>
<path d="M14521 4784 c0 -11 3 -14 6 -6 3 7 2 16 -1 19 -3 4 -6 -2 -5 -13z"/>
<path d="M14813 4740 c0 -25 2 -35 4 -22 2 12 2 32 0 45 -2 12 -4 2 -4 -23z"/>
<path d="M14912 4720 c0 -19 2 -27 5 -17 2 9 2 25 0 35 -3 9 -5 1 -5 -18z"/>
<path d="M14513 4685 c0 -22 2 -30 4 -17 2 12 2 30 0 40 -3 9 -5 -1 -4 -23z"/>
<path d="M14612 4685 c0 -16 2 -22 5 -12 2 9 2 23 0 30 -3 6 -5 -1 -5 -18z"/>
<path d="M14821 4624 c0 -11 3 -14 6 -6 3 7 2 16 -1 19 -3 4 -6 -2 -5 -13z"/>
<path d="M14922 4620 c0 -14 2 -19 5 -12 2 6 2 18 0 25 -3 6 -5 1 -5 -13z"/>
<path d="M14501 4589 c0 -24 5 -53 10 -64 9 -19 9 -19 5 2 -3 15 0 20 10 16 8
-3 14 -1 14 5 0 6 -5 12 -10 14 -6 2 -13 17 -16 33 -8 46 -14 43 -13 -6z"/>
<path d="M14598 4590 c2 -22 6 -40 8 -40 2 0 4 18 4 40 0 22 -3 40 -8 40 -4 0
-6 -18 -4 -40z"/>
<path d="M14560 4570 c0 -5 5 -10 10 -10 6 0 10 5 10 10 0 6 -4 10 -10 10 -5
0 -10 -4 -10 -10z"/>
<path d="M14927 4561 c-4 -17 -3 -21 5 -13 5 5 8 16 6 23 -3 8 -7 3 -11 -10z"/>
<path d="M14941 4484 c0 -11 3 -14 6 -6 3 7 2 16 -1 19 -3 4 -6 -2 -5 -13z"/>
<path d="M14585 4449 c8 -44 15 -50 15 -11 0 17 -5 34 -10 37 -7 4 -9 -5 -5
-26z"/>
<path d="M14492 4430 c0 -19 2 -27 5 -17 2 9 2 25 0 35 -3 9 -5 1 -5 -18z"/>
<path d="M14951 4424 c0 -11 3 -14 6 -6 3 7 2 16 -1 19 -3 4 -6 -2 -5 -13z"/>
<path d="M14587 4381 c-4 -17 -3 -21 5 -13 5 5 8 16 6 23 -3 8 -7 3 -11 -10z"/>
<path d="M14961 4364 c0 -11 3 -14 6 -6 3 7 2 16 -1 19 -3 4 -6 -2 -5 -13z"/>
<path d="M14505 4319 c-4 -11 -3 -44 1 -72 4 -29 9 -44 12 -34 2 10 8 14 15
10 7 -3 4 3 -5 14 -22 24 -23 37 -4 30 10 -4 13 -1 9 8 -3 8 -9 12 -14 9 -18
-11 -8 16 13 36 l22 20 -21 0 c-13 0 -24 -8 -28 -21z"/>
<path d="M14560 4310 c0 -5 5 -10 10 -10 6 0 10 5 10 10 0 6 -4 10 -10 10 -5
0 -10 -4 -10 -10z"/>
<path d="M14596 4292 c0 -16 3 -33 5 -38 3 -5 5 -22 4 -39 -1 -16 4 -37 12
-47 14 -15 20 -35 23 -68 0 -13 2 -12 10 1 7 12 5 27 -7 49 -9 18 -21 64 -27
101 -11 70 -22 92 -20 41z"/>
<path d="M14872 4300 c0 -14 2 -19 5 -12 2 6 2 18 0 25 -3 6 -5 1 -5 -13z"/>
<path d="M14972 4295 c0 -16 2 -22 5 -12 2 9 2 23 0 30 -3 6 -5 -1 -5 -18z"/>
<path d="M14967 4181 c-4 -18 -4 -37 -1 -42 3 -5 0 -9 -6 -9 -6 0 -9 -4 -5 -9
3 -5 1 -12 -5 -16 -5 -3 -10 -14 -10 -25 0 -18 -25 -35 -45 -31 -5 1 -4 -3 3
-10 14 -15 16 -33 3 -24 -6 3 -14 -3 -20 -12 -6 -10 -11 -14 -11 -10 0 5 -7 1
-16 -8 -9 -9 -19 -13 -23 -9 -3 4 -1 9 6 11 14 5 6 33 -9 33 -6 0 -8 -6 -5
-14 3 -8 -1 -20 -9 -26 -10 -9 -14 -9 -14 -1 0 6 -7 11 -16 11 -8 0 -12 -4 -9
-10 3 -5 1 -10 -4 -10 -6 0 -11 5 -11 11 0 5 -5 7 -12 3 -19 -12 -58 -11 -58
2 0 6 -8 18 -17 25 -11 10 -14 10 -9 2 4 -7 3 -13 -2 -13 -5 0 -15 11 -22 25
-15 28 -33 34 -23 8 5 -12 1 -11 -15 5 -24 24 -30 41 -9 23 14 -11 27 -5 27
11 0 5 -11 6 -24 4 -23 -4 -24 -2 -19 28 4 25 1 35 -11 39 -12 5 -15 3 -9 -6
9 -15 15 -47 7 -47 -3 0 -10 14 -16 31 -6 16 -12 28 -15 26 -10 -11 31 -86 70
-125 128 -130 346 -64 373 113 8 55 1 93 -9 46z"/>
<path d="M14900 4190 c0 -5 5 -10 10 -10 6 0 10 5 10 10 0 6 -4 10 -10 10 -5
0 -10 -4 -10 -10z"/>
<path d="M14520 4174 c0 -8 5 -12 10 -9 6 4 8 11 5 16 -9 14 -15 11 -15 -7z"/>
<path d="M14870 4149 c-23 -86 -100 -114 -174 -64 -27 18 -36 21 -36 10 0 -8
5 -15 10 -15 6 0 9 -3 9 -7 -3 -20 2 -24 15 -14 11 9 16 9 22 -1 4 -7 4 -10
-1 -6 -9 8 -40 -20 -32 -29 3 -3 13 2 22 11 17 17 35 21 35 8 0 -11 38 -13 45
-2 3 5 13 6 22 3 11 -4 14 -3 9 5 -4 7 -1 12 9 12 9 0 13 -4 10 -10 -3 -5 -1
-10 5 -10 7 0 9 7 6 16 -9 23 13 47 30 33 7 -6 23 -9 36 -7 22 4 22 5 -6 16
-26 12 -28 15 -22 52 8 52 0 51 -14 -1z"/>
<path d="M14860 4031 c0 -6 5 -13 10 -16 6 -3 10 1 10 9 0 9 -4 16 -10 16 -5
0 -10 -4 -10 -9z"/>
<path d="M14735 4010 c4 -6 11 -8 16 -5 14 9 11 15 -7 15 -8 0 -12 -5 -9 -10z"/>
<path d="M14780 4011 c0 -5 7 -11 14 -14 10 -4 13 -1 9 9 -6 15 -23 19 -23 5z"/>
<path d="M9874 3582 c-71 -49 -176 -122 -234 -163 -134 -94 -225 -142 -325
-171 -67 -19 -103 -22 -220 -22 -122 1 -151 4 -228 28 -49 14 -111 38 -138 52
-64 32 -108 29 -129 -8 -25 -45 0 -76 92 -116 205 -88 448 -109 653 -57 103
26 252 109 475 265 254 178 260 182 260 210 0 23 -42 70 -63 70 -7 0 -72 -40
-143 -88z"/>
</g>
</svg>
