<?xml version="1.0" standalone="no"?>
<!DOCTYPE svg PUBLIC "-//W3C//DTD SVG 20010904//EN"
 "http://www.w3.org/TR/2001/REC-SVG-20010904/DTD/svg10.dtd">
<svg version="1.0" xmlns="http://www.w3.org/2000/svg"
 width="2816.000000pt" height="1536.000000pt" viewBox="0 0 2816.000000 1536.000000"
 preserveAspectRatio="xMidYMid meet">

<g transform="translate(0.000000,1536.000000) scale(0.100000,-0.100000)"
fill="#000000" stroke="none">
<path d="M10466 13818 c5 -8 2 -9 -10 -5 -27 11 -36 -1 -24 -29 11 -24 35 -26
63 -3 6 4 17 4 24 -1 19 -11 42 10 27 25 -12 14 -68 -4 -59 -19 3 -5 1 -6 -5
-3 -5 4 -8 16 -5 27 3 12 0 20 -6 20 -7 0 -9 -5 -5 -12z m-11 -18 c3 -5 2 -10
-4 -10 -5 0 -13 5 -16 10 -3 6 -2 10 4 10 5 0 13 -4 16 -10z"/>
<path d="M10585 13774 c-280 -62 -524 -278 -617 -544 -19 -54 -137 -491 -218
-805 -22 -88 -79 -304 -125 -480 -46 -176 -145 -554 -219 -840 -74 -286 -185
-711 -246 -945 -61 -234 -145 -555 -186 -715 -42 -159 -96 -366 -121 -460 -25
-93 -82 -316 -128 -495 -46 -179 -114 -440 -150 -580 -37 -140 -95 -367 -130
-504 l-63 -249 -59 -22 c-32 -13 -123 -49 -203 -82 -80 -33 -226 -88 -325
-122 -99 -35 -292 -105 -430 -156 -137 -52 -335 -125 -440 -163 -104 -38 -220
-83 -257 -100 -38 -17 -68 -29 -68 -27 0 8 302 428 409 570 175 231 397 447
602 583 41 28 255 154 475 280 219 126 414 238 431 248 25 14 36 31 47 69 8
27 14 51 12 52 -5 6 -923 -523 -1011 -582 -160 -107 -324 -250 -452 -394 -107
-120 -257 -320 -644 -861 -168 -234 -417 -580 -554 -770 -620 -860 -752 -1044
-953 -1325 -118 -165 -254 -347 -301 -405 -125 -153 -311 -335 -516 -506 -99
-82 -497 -415 -885 -739 -388 -324 -1045 -872 -1460 -1218 -415 -346 -890
-742 -1056 -880 -165 -139 -396 -331 -512 -427 l-212 -175 60 -3 59 -3 113 93
c114 93 335 277 1838 1530 734 612 1229 1025 2075 1733 244 205 462 418 587
575 41 52 206 277 365 500 775 1085 1145 1596 1245 1722 129 163 245 253 407
317 96 38 844 312 1056 387 88 31 264 97 390 146 426 167 549 202 720 202 192
0 277 -40 606 -285 112 -83 252 -183 310 -221 l106 -70 -39 -93 c-77 -188 -80
-262 -16 -351 61 -85 240 -188 455 -261 95 -32 120 -37 208 -37 105 -1 168 15
229 57 l28 20 -7 -24 c-4 -13 -18 -44 -32 -69 -89 -157 -255 -267 -500 -332
-116 -31 -122 -32 -348 -32 -187 0 -257 4 -372 22 -244 38 -478 107 -584 171
-43 27 -71 27 -95 0 -43 -48 -155 -116 -410 -250 -148 -77 -275 -146 -282
-153 -7 -7 -21 -77 -32 -162 -80 -617 -251 -1216 -481 -1685 -178 -363 -347
-612 -579 -852 -55 -58 -100 -111 -100 -119 0 -18 20 -38 38 -38 8 0 38 21 66
47 193 179 397 451 566 752 l55 99 57 -52 c66 -60 169 -114 288 -149 47 -14
245 -67 440 -117 322 -83 1123 -291 1870 -485 157 -41 506 -131 775 -200 270
-70 524 -136 565 -147 115 -31 287 -28 403 6 277 82 483 276 578 545 15 42 46
152 70 245 41 163 43 168 58 145 58 -88 156 -156 271 -189 85 -24 110 -19 110
20 0 25 -18 37 -91 60 -183 58 -289 211 -289 419 0 152 39 257 132 356 80 86
228 162 352 180 25 4 53 16 62 26 23 26 39 24 119 -14 180 -86 274 -246 275
-463 0 -173 -58 -313 -185 -440 -122 -123 -271 -200 -456 -234 -73 -14 -84
-22 -93 -66 l-7 -31 58 9 c228 34 416 123 552 259 153 152 218 323 208 544
-10 229 -115 397 -307 493 l-80 40 70 16 c39 8 104 31 146 51 98 45 401 246
481 319 83 76 156 187 189 289 25 73 28 97 28 227 1 122 -3 157 -22 225 -32
109 -83 202 -154 280 -33 36 -59 67 -57 68 2 2 24 12 49 23 176 76 402 351
477 579 22 69 26 97 26 200 -1 238 -65 409 -206 546 -64 63 -133 106 -243 154
l-79 35 -10 -38 c-5 -20 -16 -47 -22 -59 -7 -12 -13 -28 -12 -35 0 -7 5 0 11
15 13 36 29 33 148 -25 65 -31 102 -58 155 -112 124 -125 176 -262 178 -466 2
-138 -18 -212 -88 -335 -193 -337 -446 -490 -687 -415 -227 70 -320 381 -208
692 65 177 195 324 423 477 58 39 77 58 77 75 0 24 -17 46 -36 46 -16 0 -146
-86 -223 -148 -35 -28 -68 -49 -73 -46 -4 3 -7 0 -6 -8 2 -7 -3 -12 -10 -10
-6 1 -11 -1 -10 -6 2 -4 -7 -20 -19 -36 -13 -16 -23 -25 -23 -20 0 9 144 571
320 1254 45 173 126 491 181 705 55 215 111 431 124 480 13 50 117 450 230
890 268 1037 302 1170 430 1665 105 405 108 418 113 547 6 168 -11 250 -80
393 -44 92 -61 115 -142 195 -73 73 -109 100 -181 137 -101 52 -148 65 -490
138 -132 28 -447 95 -700 150 -253 55 -640 138 -860 185 -220 47 -587 126
-816 175 -229 50 -419 90 -422 90 -3 0 -4 9 -2 20 2 12 0 18 -6 15 -5 -4 -7
-11 -4 -16 10 -15 -17 -11 -288 47 -300 64 -428 75 -552 48z m448 -305 c180
-39 248 -57 265 -72 21 -20 22 -25 16 -123 -7 -98 -6 -105 20 -158 33 -67 101
-130 164 -150 49 -16 481 -112 1107 -246 204 -44 504 -109 668 -145 178 -39
321 -65 356 -65 142 0 258 88 302 230 10 33 27 62 42 74 25 18 27 18 287 -38
305 -65 364 -89 454 -187 91 -98 136 -214 136 -351 0 -61 -11 -119 -50 -270
-28 -106 -88 -339 -134 -518 -47 -179 -127 -489 -180 -690 -52 -201 -160 -619
-240 -930 -80 -311 -218 -844 -306 -1185 -157 -604 -302 -1165 -456 -1765 -73
-284 -146 -569 -296 -1145 -38 -148 -94 -364 -124 -479 -39 -153 -66 -234 -98
-300 -55 -112 -76 -191 -76 -290 0 -63 -13 -124 -69 -339 -70 -266 -138 -530
-276 -1072 -126 -498 -139 -529 -259 -642 -115 -109 -219 -153 -363 -153 -77
0 -114 9 -668 155 -154 40 -428 112 -610 159 -181 47 -406 106 -500 130 -93
24 -460 119 -815 211 -355 91 -775 200 -935 241 -159 41 -318 88 -353 104 -63
29 -167 117 -177 150 -3 10 8 53 26 96 156 394 300 963 354 1404 8 68 15 125
15 126 0 2 96 53 213 115 292 154 365 196 415 236 l42 35 83 -35 c249 -106
597 -171 922 -171 202 -1 294 11 435 56 364 115 570 362 574 689 1 78 -1 88
-26 121 -45 59 -231 148 -634 303 -106 40 -219 88 -253 105 -80 40 -231 143
-465 318 -299 222 -434 282 -636 282 -58 0 -132 -7 -165 -15 -33 -8 -63 -14
-66 -15 -4 0 22 111 58 248 35 136 106 411 158 612 250 973 383 1488 683 2640
83 316 180 692 217 835 36 143 116 449 176 680 61 231 137 524 170 650 37 143
73 257 95 302 63 131 195 239 335 277 99 27 182 20 442 -35z m-748 -6978 c498
-193 575 -236 575 -314 0 -125 -158 -228 -324 -213 -170 16 -496 168 -568 267
-32 42 -33 95 -4 185 37 115 65 177 79 170 7 -3 116 -45 242 -95z m3303 -763
c12 -20 42 -54 66 -76 l44 -40 -27 -25 c-38 -35 -262 -199 -266 -195 -3 2 23
111 57 241 l61 237 22 -54 c12 -29 31 -69 43 -88z m257 -173 c33 -8 90 -15
126 -15 60 0 70 -3 110 -34 56 -42 121 -125 153 -196 46 -101 61 -175 60 -310
0 -110 -3 -135 -27 -204 -54 -154 -148 -257 -374 -406 -311 -206 -472 -250
-637 -172 -222 105 -331 370 -250 610 59 178 172 302 457 501 97 68 208 150
245 182 37 31 69 58 72 58 3 0 32 -6 65 -14z m-562 -1440 c42 -11 64 -22 61
-30 -3 -7 -43 -22 -90 -33 -46 -12 -114 -35 -151 -52 -36 -17 -67 -29 -68 -28
-1 2 12 58 28 125 l29 122 62 -43 c37 -26 89 -50 129 -61z"/>
<path d="M12273 12466 c-63 -55 -75 -59 -142 -41 -84 21 -123 20 -149 -7 -15
-16 -37 -88 -76 -245 -31 -122 -56 -234 -56 -248 0 -51 35 -70 201 -109 561
-134 627 -147 658 -131 18 9 34 28 40 47 24 78 111 440 111 466 0 42 -37 71
-111 88 -96 21 -104 27 -128 87 -16 39 -30 58 -49 66 -27 10 -236 61 -253 61
-5 0 -26 -15 -46 -34z m140 -197 c52 -14 112 -71 133 -125 53 -138 -63 -286
-212 -271 -174 18 -245 225 -120 346 55 54 124 71 199 50z m346 -86 c13 -25
-5 -53 -34 -53 -15 0 -26 7 -30 20 -13 41 43 70 64 33z"/>
<path d="M12307 12216 c-51 -19 -73 -40 -93 -92 -21 -56 -12 -104 27 -149 74
-84 204 -63 251 41 53 121 -62 244 -185 200z"/>
<path d="M10502 9728 c-10 -12 -62 -207 -154 -567 l-41 -164 21 -18 c28 -22
58 -14 71 19 5 15 45 164 87 332 42 168 78 307 80 309 1 1 139 -31 306 -73
167 -42 311 -78 321 -81 18 -3 57 26 57 43 0 31 -42 46 -361 127 -185 47 -346
85 -357 85 -11 0 -24 -6 -30 -12z"/>
<path d="M12092 9338 c-16 -16 -15 -53 1 -67 8 -6 151 -45 318 -86 167 -42
309 -77 316 -80 9 -3 7 -22 -7 -72 -10 -37 -49 -184 -86 -326 -65 -249 -66
-258 -49 -277 21 -23 48 -26 64 -7 6 8 52 173 101 367 88 340 90 354 73 371
-11 11 -141 49 -357 103 -186 47 -343 86 -350 86 -7 0 -17 -5 -24 -12z"/>
<path d="M10088 8133 c-8 -10 -55 -177 -104 -370 -78 -312 -87 -354 -74 -367
15 -15 668 -186 709 -186 29 0 49 43 31 65 -16 19 -54 30 -380 112 -146 36
-266 67 -267 68 -2 1 33 142 77 313 44 171 80 321 80 334 0 46 -43 64 -72 31z"/>
<path d="M12346 7568 c-8 -13 -49 -162 -92 -333 -42 -170 -80 -314 -84 -318
-4 -4 -150 28 -325 72 -234 58 -324 77 -337 70 -19 -10 -25 -63 -9 -73 16 -10
681 -176 705 -176 13 0 28 6 33 13 12 14 174 644 181 701 3 30 0 43 -14 53
-26 19 -41 16 -58 -9z"/>
<path d="M13210 5960 c0 -5 5 -10 11 -10 5 0 7 5 4 10 -3 6 -8 10 -11 10 -2 0
-4 -4 -4 -10z"/>
<path d="M13066 5414 c-8 -22 -4 -25 11 -9 7 8 9 16 4 19 -5 3 -12 -1 -15 -10z"/>
<path d="M13563 5095 c-114 -32 -243 -111 -243 -148 0 -13 27 -58 60 -101 101
-132 138 -233 155 -429 6 -71 9 -79 32 -90 39 -18 103 23 224 143 132 131 170
199 177 319 6 99 -14 162 -70 226 -58 66 -106 88 -203 92 -49 2 -100 -3 -132
-12z m213 -84 c133 -61 152 -248 39 -401 -41 -56 -183 -182 -196 -174 -5 3 -9
24 -9 48 0 107 -69 288 -150 394 -22 29 -40 56 -40 60 0 5 21 19 48 32 122 60
233 75 308 41z"/>
<path d="M15210 12746 c0 -2 8 -10 18 -17 15 -13 16 -12 3 4 -13 16 -21 21
-21 13z"/>
<path d="M25705 10153 c-33 -2 -213 -10 -400 -18 -449 -20 -976 -41 -1655 -65
-305 -11 -656 -24 -780 -30 -124 -6 -412 -17 -640 -25 -504 -18 -666 -35 -993
-106 -216 -46 -911 -228 -973 -254 -37 -15 -45 -44 -18 -66 13 -10 29 -9 97 9
702 188 928 243 1170 282 203 33 290 39 699 55 216 8 557 22 758 30 201 8 563
22 805 30 242 9 602 22 800 30 198 8 540 21 760 30 220 9 416 19 435 23 30 6
35 11 35 36 0 35 -17 42 -100 39z"/>
<path d="M19563 9569 c-95 -11 -218 -60 -312 -123 -127 -87 -170 -166 -139
-253 l15 -43 -50 -25 c-33 -16 -68 -25 -98 -25 -52 0 -72 -16 -67 -52 2 -19
10 -24 40 -26 l38 -3 -16 -31 c-13 -24 -14 -36 -5 -55 18 -39 51 -27 81 29 33
60 53 82 106 113 l42 25 45 -19 c93 -40 252 -55 404 -38 l72 8 7 -46 c16 -110
-16 -221 -140 -484 -96 -205 -131 -293 -162 -411 l-22 -85 -46 -3 c-55 -4
-187 20 -277 49 -269 87 -441 267 -494 516 -7 34 -16 66 -20 72 -9 15 -60 14
-73 -2 -37 -45 -40 -305 -4 -407 88 -249 278 -441 537 -541 96 -38 240 -75
323 -85 l60 -6 25 -69 c57 -154 182 -285 350 -368 336 -165 927 -171 1259 -12
197 94 321 240 351 416 14 82 -2 183 -41 263 -32 66 -117 157 -185 196 -117
68 -290 106 -476 106 -146 0 -251 -14 -542 -70 -116 -23 -212 -40 -214 -38 -9
10 56 226 134 449 127 360 152 504 116 657 -34 145 -145 298 -263 360 -101 54
-230 76 -359 61z m182 -84 c186 -39 310 -161 360 -352 26 -101 16 -243 -17
-243 -28 0 -137 -60 -148 -81 -9 -15 -10 -49 -6 -109 9 -107 -1 -136 -72 -203
-81 -76 -82 -162 -2 -229 l39 -34 -19 -75 c-11 -40 -23 -102 -26 -137 -7 -62
-8 -64 -45 -79 -55 -21 -99 -75 -99 -118 0 -38 12 -53 83 -102 52 -36 67 -72
67 -167 0 -53 3 -61 34 -92 53 -53 115 -42 199 35 l43 40 95 -19 c52 -11 134
-20 182 -20 l89 0 50 -44 c100 -87 214 -118 288 -78 57 31 85 92 86 190 2 78
4 85 39 136 43 63 42 96 -4 96 -22 0 -34 -10 -59 -49 -38 -59 -58 -68 -86 -42
-55 50 -82 56 -246 56 -131 0 -184 -5 -349 -34 l-195 -34 -32 38 c-37 42 -62
108 -66 175 l-3 45 160 32 c88 18 165 32 171 32 6 1 16 -24 23 -54 9 -39 21
-61 42 -80 53 -44 106 -31 194 45 57 49 83 50 142 5 80 -61 148 -45 237 57 41
47 46 50 80 44 56 -11 190 -82 236 -127 23 -22 56 -71 73 -107 28 -59 32 -77
32 -152 0 -74 -4 -93 -32 -152 -136 -289 -586 -424 -1142 -342 -304 45 -517
176 -611 376 -50 107 -75 240 -65 348 16 179 57 308 184 583 122 264 153 358
155 467 0 47 -2 101 -7 121 -7 34 -5 37 17 43 53 13 74 65 36 86 -15 8 -29 6
-60 -10 -76 -39 -164 -52 -310 -48 -108 4 -146 9 -192 27 -60 23 -108 69 -108
102 0 51 138 158 263 203 124 46 197 53 302 31z m-1177 -1097 c41 -83 124
-183 211 -253 63 -51 71 -61 77 -101 7 -52 39 -103 74 -121 45 -23 121 -16
186 17 58 29 60 30 144 19 47 -6 94 -13 105 -15 19 -3 20 -11 21 -119 l1 -116
-46 7 c-87 12 -230 54 -318 92 -256 110 -432 316 -479 559 -22 116 -20 119 24
31z m2160 -718 c23 -10 42 -22 42 -25 0 -11 -68 -35 -141 -50 -80 -17 -260
-20 -340 -5 -78 14 -139 32 -139 40 0 3 69 18 153 32 195 34 362 37 425 8z"/>
<path d="M19534 9355 c-15 -23 -15 -27 0 -50 10 -15 26 -25 41 -25 15 0 31 10
41 25 15 23 15 27 0 50 -10 15 -26 25 -41 25 -15 0 -31 -10 -41 -25z"/>
<path d="M18715 9324 c-96 -27 -391 -83 -565 -108 -290 -41 -655 -70 -1035
-81 -115 -4 -505 -17 -865 -30 -360 -14 -797 -29 -970 -35 -173 -6 -325 -15
-337 -20 -27 -11 -32 -57 -7 -67 9 -3 210 2 447 11 548 21 1114 42 1662 61
726 25 1174 72 1610 170 159 36 189 46 193 68 9 46 -39 57 -133 31z"/>
<path d="M14645 8782 c-41 -6 -50 -11 -56 -32 -16 -56 -15 -57 59 -49 200 23
402 3 512 -49 232 -109 290 -405 118 -601 -87 -99 -260 -211 -511 -330 -136
-65 -464 -201 -485 -201 -10 0 -36 -89 -29 -97 6 -5 322 122 482 194 364 165
596 329 667 473 145 292 7 585 -317 675 -65 18 -348 29 -440 17z"/>
<path d="M8265 8609 c-39 -8 -568 -88 -1125 -170 -151 -22 -468 -70 -705 -105
-236 -36 -641 -96 -900 -134 -695 -102 -689 -101 -702 -112 -18 -15 -16 -55 3
-62 14 -5 670 86 1139 159 203 31 1094 164 1675 250 437 64 669 101 702 111
22 7 30 31 18 55 -12 20 -37 23 -105 8z"/>
<path d="M14407 8083 c-4 -3 -7 -11 -7 -17 0 -6 5 -5 12 2 6 6 9 14 7 17 -3 3
-9 2 -12 -2z"/>
<path d="M14287 7624 c-4 -4 -7 -19 -6 -33 l0 -26 10 24 c10 26 8 47 -4 35z"/>
<path d="M13386 3778 c-19 -27 -7 -52 34 -73 40 -21 77 -78 90 -142 15 -67 -2
-160 -41 -232 -34 -64 -36 -86 -9 -101 18 -9 25 -7 49 19 68 73 103 270 67
379 -19 55 -82 134 -127 157 -37 20 -45 19 -63 -7z"/>
<path d="M7660 3096 c0 -2 8 -10 18 -17 15 -13 16 -12 3 4 -13 16 -21 21 -21
13z"/>
<path d="M10150 2154 c-556 -390 -1099 -670 -1695 -874 -249 -84 -392 -121
-951 -240 -278 -59 -399 -115 -583 -270 -49 -41 -397 -418 -586 -635 -43 -50
-88 -100 -99 -112 l-19 -23 54 0 c54 1 54 1 108 63 143 165 506 560 569 619
88 82 171 139 276 189 91 42 112 48 591 155 371 83 575 141 823 234 496 186
907 395 1352 687 206 136 410 281 410 292 0 10 -46 31 -68 31 -10 0 -92 -52
-182 -116z"/>
</g>
</svg>
