<?xml version="1.0" standalone="no"?>
<!DOCTYPE svg PUBLIC "-//W3C//DTD SVG 20010904//EN"
 "http://www.w3.org/TR/2001/REC-SVG-20010904/DTD/svg10.dtd">
<svg version="1.0" xmlns="http://www.w3.org/2000/svg"
 width="1536.000000pt" height="1024.000000pt" viewBox="0 0 1536.000000 1024.000000"
 preserveAspectRatio="xMidYMid meet">

<g transform="translate(0.000000,1024.000000) scale(0.100000,-0.100000)"
fill="#000000" stroke="none">
<path d="M3904 6291 c-128 -54 -134 -397 -18 -1021 33 -183 35 -185 103 -211
198 -74 875 -296 1531 -501 283 -88 535 -172 560 -186 25 -14 82 -54 127 -89
l82 -63 98 0 c105 0 1167 45 1321 56 l92 6 -67 42 c-567 352 -726 447 -1153
696 -157 92 -316 170 -430 213 -89 33 -482 134 -1025 263 -412 98 -788 193
-796 201 -3 5 -26 53 -49 108 -95 226 -208 421 -270 466 -31 23 -78 31 -106
20z"/>
<path d="M2803 4965 c-139 -38 -252 -128 -306 -244 -25 -53 -31 -80 -35 -160
-8 -160 34 -275 196 -538 96 -156 112 -191 112 -247 -1 -164 -194 -257 -503
-243 -136 6 -209 24 -249 62 -32 29 -37 51 -10 40 55 -24 131 -37 238 -42 190
-9 326 21 395 86 46 45 54 92 18 112 -38 20 -170 37 -383 50 -184 12 -219 11
-302 -3 -224 -38 -347 -163 -331 -338 22 -250 247 -341 802 -327 291 7 404 31
541 113 175 105 264 285 235 477 -16 105 -28 130 -176 367 -188 301 -240 417
-202 448 7 6 66 11 147 10 113 0 146 3 200 22 181 60 223 137 131 242 -48 54
-148 102 -241 117 -89 15 -214 13 -277 -4z m278 -125 c21 -17 22 -21 9 -30
-18 -12 -78 -6 -94 10 -8 8 -6 15 8 26 27 19 49 18 77 -6z"/>
<path d="M11813 4754 c-24 -16 -43 -34 -43 -40 0 -7 15 -17 34 -24 91 -30 187
-125 185 -184 0 -17 -3 -24 -6 -16 -14 36 -66 89 -105 108 -72 33 -143 43
-246 33 -112 -10 -150 -3 -227 44 -81 49 -116 47 -167 -6 -31 -32 -61 -50
-128 -75 -136 -50 -218 -94 -278 -149 -63 -57 -91 -111 -92 -174 0 -42 52
-217 71 -235 15 -17 10 -32 -16 -46 -31 -17 -31 -20 1 -67 78 -114 132 -260
141 -381 5 -71 8 -82 22 -76 49 23 222 77 331 105 157 39 162 42 108 58 -98
30 -161 81 -151 121 9 34 20 32 83 -14 144 -106 291 -113 392 -18 33 31 44 24
29 -18 -9 -28 -9 -31 5 -26 53 20 499 84 624 88 l64 3 19 85 c26 125 19 322
-18 445 -82 277 -284 469 -508 482 -77 4 -85 3 -124 -23z m-245 -246 c19 -19
16 -193 -4 -212 -32 -32 -51 -11 -64 70 -14 81 3 154 34 154 12 0 27 -5 34
-12z"/>
<path d="M9357 4339 c-111 -26 -191 -108 -281 -288 -118 -233 -242 -569 -267
-720 -10 -62 -10 -73 7 -107 47 -94 101 -105 543 -111 188 -3 347 -1 351 4 10
10 -10 191 -40 358 -12 66 -24 135 -27 153 -3 17 -9 32 -14 32 -5 0 -55 -9
-111 -20 -57 -11 -104 -20 -105 -20 -8 0 -1 82 11 125 24 91 41 113 139 175
141 90 166 109 198 153 21 29 29 51 27 72 l-3 30 -73 -3 -73 -2 6 45 c11 69 1
93 -48 115 -46 21 -169 26 -240 9z"/>
<path d="M9792 4267 l-33 -13 40 -22 c23 -13 45 -32 51 -42 16 -30 12 -87 -9
-128 -30 -57 -65 -86 -255 -205 -44 -27 -86 -91 -86 -131 0 -21 -13 -22 200
22 186 39 329 55 439 50 148 -7 142 -22 -21 -47 -145 -23 -389 -68 -393 -73
-1 -2 11 -66 26 -143 16 -77 36 -202 46 -277 l17 -138 91 0 c111 0 465 26 560
41 216 34 306 83 367 199 20 39 23 59 22 150 -1 184 -66 332 -209 475 -125
126 -286 215 -475 264 -105 27 -327 38 -378 18z"/>
<path d="M8900 4263 c-87 -5 -648 -53 -719 -61 l-63 -7 2 -360 c1 -198 3 -371
5 -385 2 -14 4 -80 4 -148 l1 -123 288 7 c174 4 290 11 294 17 3 6 9 35 13 66
27 218 187 640 343 904 29 48 52 90 52 92 0 5 -123 4 -220 -2z"/>
<path d="M7570 4179 c-124 -4 -400 -12 -615 -18 -617 -18 -849 -30 -972 -51
-119 -21 -273 -65 -273 -79 0 -4 8 -16 19 -25 33 -30 80 -148 97 -246 18 -104
14 -203 -11 -288 l-15 -49 -162 -32 c-278 -53 -267 -49 -128 -50 69 -1 166 -6
215 -11 50 -5 162 -16 250 -24 88 -8 318 -31 510 -50 783 -79 874 -86 1134
-86 136 0 290 3 341 7 l93 6 -7 231 c-3 127 -9 354 -12 504 l-7 272 -116 -2
c-64 0 -217 -5 -341 -9z"/>
<path d="M3458 4111 c-30 -27 -33 -34 -32 -88 2 -74 29 -139 164 -388 165
-305 213 -385 248 -416 32 -28 36 -29 135 -29 114 0 1203 109 1265 126 9 3 7
10 -8 26 -66 70 -117 255 -107 388 8 107 20 135 70 158 76 35 92 43 75 38 -10
-3 -21 2 -26 11 -8 14 -42 10 -313 -35 -167 -28 -407 -67 -534 -88 l-230 -36
-172 128 c-256 193 -335 234 -448 234 -46 0 -60 -4 -87 -29z"/>
<path d="M5730 3971 c0 -6 4 -13 10 -16 6 -3 7 1 4 9 -7 18 -14 21 -14 7z"/>
<path d="M5750 3931 c0 -6 4 -13 10 -16 6 -3 7 1 4 9 -7 18 -14 21 -14 7z"/>
<path d="M5791 3814 c0 -11 3 -14 6 -6 3 7 2 16 -1 19 -3 4 -6 -2 -5 -13z"/>
<path d="M5801 3774 c0 -11 3 -14 6 -6 3 7 2 16 -1 19 -3 4 -6 -2 -5 -13z"/>
<path d="M12546 3783 c-3 -4 10 -24 31 -45 l37 -38 -101 0 c-238 0 -688 -69
-1038 -159 -393 -102 -512 -155 -544 -247 -20 -56 -2 -91 63 -123 48 -24 50
-24 530 -34 619 -11 1304 -3 1399 17 133 29 207 94 215 190 6 70 -10 114 -61
172 -72 82 -264 194 -430 250 -75 26 -90 28 -101 17z"/>
<path d="M5492 3738 c-7 -7 -12 -28 -12 -48 0 -76 82 -97 96 -25 11 62 -46
111 -84 73z"/>
<path d="M5336 3714 c-34 -34 -9 -114 35 -114 40 0 55 82 21 113 -23 21 -36
21 -56 1z"/>
<path d="M5812 3705 c0 -16 2 -22 5 -12 2 9 2 23 0 30 -3 6 -5 -1 -5 -18z"/>
<path d="M3276 3590 c-11 -94 -62 -185 -153 -270 -44 -41 -100 -82 -134 -98
-32 -15 -59 -30 -59 -34 0 -12 275 -9 350 2 82 13 146 36 189 68 36 27 70 91
71 133 0 47 -48 125 -103 167 -50 37 -138 92 -149 92 -3 0 -8 -27 -12 -60z"/>
<path d="M5142 3620 c0 -19 2 -27 5 -17 2 9 2 25 0 35 -3 9 -5 1 -5 -18z"/>
<path d="M5811 3564 c0 -11 3 -14 6 -6 3 7 2 16 -1 19 -3 4 -6 -2 -5 -13z"/>
<path d="M1405 3470 c-228 -58 -373 -123 -397 -176 -21 -45 -3 -48 147 -29
146 19 316 17 428 -6 31 -7 60 -10 62 -7 3 3 -11 39 -30 80 -20 41 -38 98 -42
126 -3 29 -9 52 -12 51 -3 0 -73 -18 -156 -39z"/>
<path d="M5665 3420 c-25 -11 1 -11 35 0 20 6 21 8 5 8 -11 0 -29 -3 -40 -8z"/>
<path d="M5568 3393 c7 -3 16 -2 19 1 4 3 -2 6 -13 5 -11 0 -14 -3 -6 -6z"/>
<path d="M5246 3352 c-3 -5 1 -9 9 -9 8 0 12 4 9 9 -3 4 -7 8 -9 8 -2 0 -6 -4
-9 -8z"/>
</g>
</svg>
