<?xml version="1.0" standalone="no"?>
<!DOCTYPE svg PUBLIC "-//W3C//DTD SVG 20010904//EN"
 "http://www.w3.org/TR/2001/REC-SVG-20010904/DTD/svg10.dtd">
<svg version="1.0" xmlns="http://www.w3.org/2000/svg"
 width="1402.000000pt" height="1122.000000pt" viewBox="0 0 1402.000000 1122.000000"
 preserveAspectRatio="xMidYMid meet">

<g transform="translate(0.000000,1122.000000) scale(0.100000,-0.100000)"
fill="#000000" stroke="none">
<path d="M3162 11203 c-8 -14 7 -57 67 -193 43 -96 119 -267 168 -380 50 -113
184 -412 298 -665 114 -253 245 -543 290 -645 45 -102 133 -297 195 -435 409
-912 756 -1694 928 -2095 l109 -255 -33 -41 c-38 -46 -80 -132 -89 -185 l-7
-36 -92 96 c-51 53 -152 162 -224 242 -73 81 -167 174 -209 207 -43 33 -143
111 -223 173 -312 241 -496 423 -720 709 -194 249 -272 341 -366 430 -203 193
-399 304 -779 440 -351 125 -417 152 -556 221 -154 77 -295 168 -454 295 -207
165 -688 662 -1271 1313 -71 79 -137 149 -146 155 -23 14 -55 -14 -42 -37 9
-15 228 -263 399 -451 788 -867 1087 -1137 1482 -1335 114 -57 227 -103 448
-181 366 -131 502 -192 660 -298 182 -121 302 -243 515 -522 216 -282 396
-470 655 -685 90 -75 286 -227 329 -257 7 -4 -5 -24 -30 -50 -46 -48 -90 -111
-123 -175 -25 -50 -25 -53 -7 -53 8 0 24 17 37 38 46 77 144 211 155 212 12 0
174 -165 282 -288 l73 -84 -39 -19 c-94 -47 -150 -211 -107 -315 27 -65 189
-214 232 -214 31 0 8 32 -67 94 -104 86 -135 133 -134 200 1 63 36 148 75 181
28 23 31 23 66 8 21 -8 48 -24 62 -34 14 -12 40 -19 65 -19 45 0 83 -24 88
-54 2 -14 -4 -21 -21 -25 -21 -6 -18 -11 44 -68 73 -68 69 -55 49 -152 -5 -22
-2 -30 10 -33 14 -3 12 -10 -9 -55 -18 -40 -36 -60 -72 -83 -150 -96 -352 -77
-618 58 -142 71 -367 235 -417 303 -12 16 -27 29 -34 29 -7 0 -35 18 -63 40
-360 285 -802 399 -1153 298 -27 -8 -38 -17 -38 -31 0 -18 4 -19 78 -11 92 11
357 12 367 2 10 -10 -109 -159 -201 -252 -44 -43 -132 -121 -196 -173 -117
-93 -140 -123 -95 -123 24 0 125 60 181 107 l29 24 49 -73 c70 -104 142 -226
160 -274 17 -41 17 -41 -9 -61 -34 -24 -23 -43 23 -43 103 0 456 -194 587
-323 41 -40 59 -68 79 -122 32 -86 58 -100 58 -30 0 25 -7 62 -15 81 l-15 35
83 38 c139 64 303 110 392 111 32 0 51 -9 97 -45 44 -34 59 -41 67 -31 11 14
-2 40 -47 88 -23 26 -24 28 -9 51 26 40 168 148 239 182 62 30 70 31 130 23
72 -10 174 -2 235 18 37 13 47 13 80 -1 44 -19 79 -49 99 -87 20 -39 19 -42
-36 -61 -92 -33 -209 -177 -229 -281 -8 -42 -19 -59 -91 -131 -62 -63 -78 -84
-66 -88 9 -4 16 -13 16 -22 0 -23 16 -18 50 15 17 16 33 30 36 30 3 0 -19 -35
-49 -78 -30 -42 -77 -122 -104 -177 -133 -265 -239 -434 -295 -476 -65 -46
-346 -127 -657 -189 -317 -63 -325 -70 213 199 304 152 491 251 512 272 30 29
64 101 64 137 0 9 -28 -14 -62 -49 -62 -63 -71 -68 -583 -323 -286 -142 -544
-267 -574 -277 -66 -23 -125 -24 -188 -3 -91 31 -422 243 -819 525 -318 225
-418 291 -574 375 -281 152 -342 198 -407 306 -18 29 -75 168 -126 308 -345
934 -648 1629 -825 1895 -129 193 -367 445 -421 445 -53 0 -34 -31 92 -155
273 -267 407 -497 692 -1189 160 -389 216 -532 366 -931 191 -510 201 -523
522 -695 205 -110 275 -155 653 -421 434 -304 729 -492 828 -526 55 -20 159
-19 225 1 30 9 70 16 88 16 105 0 496 79 743 149 186 54 244 81 300 140 41 44
229 358 264 441 8 19 57 100 110 178 66 100 96 153 96 173 0 32 5 38 99 119
96 83 199 206 212 254 20 73 -22 160 -102 213 l-39 26 34 37 c18 20 41 55 51
77 15 35 24 42 55 47 20 3 48 17 62 31 23 23 26 24 33 8 12 -33 35 -247 35
-333 0 -79 -13 -227 -26 -295 -5 -26 -16 -35 -81 -64 -93 -44 -165 -117 -188
-193 -20 -68 -19 -96 7 -200 l21 -88 -58 -157 c-45 -124 -70 -175 -114 -238
-151 -213 -282 -450 -301 -542 -19 -92 5 -205 64 -294 l26 -38 -25 -53 c-48
-104 -26 -180 84 -284 39 -37 71 -74 71 -82 0 -29 64 -133 106 -172 l42 -39
-20 -53 c-14 -38 -18 -64 -13 -94 6 -43 40 -104 62 -111 18 -6 27 62 13 97
-13 32 -8 93 10 115 9 11 19 11 55 -1 48 -17 126 -15 132 3 2 6 -19 19 -49 28
-145 48 -204 96 -260 214 -32 67 -54 98 -100 140 -67 61 -88 95 -88 146 0 33
23 95 36 95 3 0 32 -18 64 -40 70 -48 216 -120 242 -120 39 0 15 27 -49 55
-147 63 -244 149 -303 269 -47 95 -51 166 -16 261 23 60 185 349 193 342 1 -2
-7 -45 -17 -97 -11 -52 -23 -138 -27 -190 -3 -53 -12 -104 -19 -115 -24 -33
-16 -63 28 -111 125 -136 371 -208 703 -207 529 2 1007 176 1450 528 152 121
279 248 544 544 310 347 814 802 1039 937 31 19 69 34 85 34 70 0 132 -57 185
-169 39 -84 148 -191 272 -268 l107 -66 -107 -142 c-157 -210 -210 -312 -225
-440 -8 -75 14 -188 53 -267 l28 -57 -63 -11 c-211 -36 -457 -164 -763 -396
-181 -137 -678 -531 -849 -673 -538 -447 -713 -572 -986 -706 -262 -129 -460
-183 -705 -192 -222 -8 -339 24 -450 124 -82 74 -100 132 -61 203 14 27 24 34
42 32 86 -11 330 -12 406 -2 343 45 783 228 1188 495 239 158 382 275 336 275
-6 0 -68 -43 -140 -95 -392 -286 -748 -471 -1117 -580 -164 -49 -290 -69 -439
-69 -147 0 -221 14 -261 51 -19 17 -30 21 -37 14 -6 -6 -19 -11 -29 -11 -20 0
-23 -11 -7 -27 8 -8 5 -26 -10 -67 -12 -31 -21 -72 -21 -90 0 -57 49 -136 119
-192 57 -46 67 -59 86 -117 13 -36 32 -81 44 -100 38 -61 146 -153 248 -210
267 -149 612 -248 1603 -457 511 -108 804 -190 1470 -410 889 -295 1315 -394
1965 -456 228 -23 954 -26 1170 -6 499 46 859 124 1190 257 452 181 756 444
853 736 74 224 101 621 53 794 -59 217 -213 416 -440 566 -212 140 -404 225
-953 420 -167 59 -373 143 -394 160 -6 5 -9 20 -7 33 8 37 -13 64 -87 112 -82
53 -116 62 -157 41 -29 -16 -31 -15 -146 54 -99 60 -117 75 -117 96 0 40 -15
57 -100 113 -70 46 -85 52 -116 47 -33 -6 -43 -1 -108 51 -39 32 -86 68 -103
81 -30 21 -32 25 -26 66 6 49 -2 61 -110 146 -60 48 -79 54 -116 34 -29 -14
-51 -61 -51 -107 0 -27 -24 -22 -47 10 l-20 27 23 18 c18 13 24 28 24 56 0 32
-9 50 -51 99 -52 62 -114 112 -138 112 -10 0 -12 9 -6 33 23 106 24 100 -58
182 -68 68 -78 75 -114 75 -45 0 -67 -18 -79 -64 -7 -29 -7 -30 -16 -7 -4 13
-24 87 -43 165 -75 304 -141 462 -235 557 -70 70 -133 95 -224 85 -122 -12
-279 -118 -416 -282 -36 -43 -76 -90 -90 -105 l-25 -28 -85 52 c-124 76 -237
188 -285 282 -46 92 -114 157 -178 173 -35 9 -56 8 -106 -4 -34 -9 -64 -15
-66 -13 -12 13 -198 311 -270 435 -86 145 -315 572 -315 586 0 10 110 -42 254
-121 89 -49 149 -90 192 -131 35 -34 83 -70 108 -80 54 -25 181 -44 421 -65
156 -13 207 -22 385 -69 113 -29 247 -66 298 -81 120 -35 210 -33 292 7 127
63 541 407 865 719 116 111 276 257 356 324 155 131 193 172 233 252 58 115
58 112 66 948 8 789 15 987 51 1370 40 429 67 537 309 1239 85 248 91 269 76
284 -25 25 -46 5 -73 -69 -74 -204 -240 -704 -274 -824 -111 -392 -147 -853
-158 -2045 -7 -741 -7 -745 -30 -809 -35 -100 -84 -160 -227 -280 -73 -61
-241 -215 -375 -342 -447 -424 -817 -718 -925 -735 -46 -7 -204 21 -204 36 0
3 15 11 33 18 42 15 139 92 491 391 160 136 385 326 500 425 367 310 412 355
387 379 -10 9 -22 2 -55 -35 -24 -26 -57 -55 -74 -65 -109 -64 -158 -104 -702
-568 -397 -339 -523 -441 -573 -466 -89 -46 -116 -43 -647 90 l-485 120 -250
127 c-318 162 -319 162 -340 218 l-17 45 35 42 c20 22 48 69 63 103 l27 63 66
-34 c109 -56 229 -57 368 -2 l51 21 101 -52 101 -52 143 13 c125 11 159 10
282 -5 77 -10 143 -20 147 -22 4 -3 8 -15 8 -28 0 -45 31 -116 50 -116 17 0
18 7 13 88 l-5 87 53 80 c88 131 269 309 366 359 18 9 48 16 67 16 19 0 38 5
41 10 10 16 -13 38 -46 45 -26 6 -29 10 -29 48 0 23 7 71 15 107 14 59 83 281
90 288 2 2 43 -10 92 -27 117 -40 168 -48 176 -28 8 21 -3 28 -113 71 -161 63
-336 170 -478 291 -51 43 -68 63 -60 72 18 21 192 130 301 188 59 31 109 60
112 65 3 4 -1 13 -9 19 -19 16 -95 -11 -222 -78 -275 -145 -503 -373 -664
-664 -167 -303 -250 -426 -374 -556 -163 -170 -323 -242 -469 -211 -116 24
-197 107 -197 204 0 38 9 65 41 125 60 110 147 239 169 251 72 39 235 -49 260
-140 13 -50 -14 -138 -75 -242 -43 -75 -55 -108 -36 -108 35 0 144 193 157
277 8 51 -8 115 -38 153 -31 40 -103 86 -163 105 -53 16 -59 16 -100 0 -32
-11 -55 -31 -81 -66 -19 -27 -37 -49 -39 -49 -11 0 216 483 272 580 133 229
250 450 302 571 29 68 100 263 157 433 197 580 263 692 650 1087 283 290 351
388 449 646 56 145 107 319 103 346 -2 16 -10 22 -28 22 -22 0 -27 -7 -43 -60
-93 -312 -163 -473 -272 -625 -33 -46 -155 -181 -273 -301 -224 -228 -271
-283 -359 -417 -93 -141 -206 -401 -278 -637 -52 -174 -158 -451 -220 -580
-35 -71 -118 -224 -184 -340 -104 -181 -266 -516 -353 -729 -19 -47 -27 -56
-48 -56 -40 0 -124 -44 -151 -79 l-25 -32 -53 13 c-37 8 -56 18 -62 32 -15 35
-145 567 -203 831 -76 345 -192 944 -276 1417 -72 411 -219 1290 -241 1438
-16 113 -23 132 -52 128 -15 -2 -23 -11 -25 -30 -5 -43 207 -1312 329 -1968
178 -957 357 -1727 484 -2083 l65 -181 -23 -24 c-12 -13 -57 -51 -100 -84
-284 -217 -709 -401 -1244 -539 -212 -54 -225 -56 -243 -34 -7 8 -29 20 -50
26 -104 31 -212 -35 -230 -141 -6 -40 -34 -52 -55 -23 -11 14 -25 18 -71 16
-58 -3 -94 -22 -94 -50 0 -20 -44 -15 -58 7 -10 17 -23 20 -77 20 -53 0 -66
-3 -78 -21 -9 -13 -23 -19 -37 -17 -23 3 -42 44 -115 248 -79 221 -544 1282
-1298 2960 -604 1345 -779 1738 -824 1845 -31 74 -61 96 -81 58z m6465 -3075
c75 -63 84 -75 79 -97 -19 -82 -27 -151 -22 -184 6 -36 4 -40 -67 -110 -81
-79 -150 -188 -194 -302 -15 -38 -28 -71 -29 -73 0 -1 -28 5 -60 14 -37 10
-106 17 -187 18 -161 3 -175 12 -130 78 17 23 63 104 103 178 91 169 165 283
247 382 58 70 158 168 170 168 3 0 44 -32 90 -72z m230 -164 c56 -35 72 -51
68 -63 -62 -151 -105 -307 -112 -409 l-6 -73 -72 -54 c-40 -29 -104 -85 -143
-123 l-69 -70 -37 77 c-42 88 -42 89 27 229 48 96 87 152 169 238 l70 73 2 98
c1 89 8 123 23 123 3 0 39 -21 80 -46z m-1810 -578 c-3 -8 -11 -34 -18 -57 -7
-24 -13 -45 -15 -47 -1 -1 -18 8 -37 20 -44 28 -43 45 2 75 38 26 76 31 68 9z
m921 -38 c7 -7 12 -20 12 -29 0 -31 21 -32 44 -4 l23 28 100 -6 c54 -3 131
-13 170 -22 78 -18 70 -9 146 -157 l18 -36 -43 -64 c-24 -36 -47 -72 -53 -81
-9 -15 -19 -15 -115 -2 -58 8 -151 15 -208 15 -123 0 -140 7 -234 98 l-67 65
49 51 c26 28 67 75 90 104 45 56 49 59 68 40z m-1070 -45 c73 -34 122 -82 122
-120 0 -17 11 -51 25 -76 23 -45 24 -49 9 -89 -25 -72 -62 -126 -139 -202
-211 -212 -678 -452 -1148 -592 -124 -36 -431 -114 -452 -114 -7 0 -15 22 -19
50 -4 27 -8 53 -9 57 -1 4 59 21 133 39 474 111 883 271 1181 461 232 147 349
272 349 370 0 56 -19 84 -80 120 -44 27 -57 41 -72 80 -10 27 -18 49 -18 50 0
8 73 -14 118 -34z m-7 -152 c16 -16 29 -39 29 -50 0 -26 -17 -71 -27 -71 -5 0
-20 34 -35 75 -22 62 -24 75 -12 75 9 0 29 -13 45 -29z m887 -107 c34 -31 62
-60 62 -65 0 -16 -41 -10 -71 11 -15 12 -49 30 -76 42 l-47 21 30 23 c16 13
32 24 35 24 3 0 33 -25 67 -56z m-799 -396 c121 -262 373 -712 556 -994 l72
-110 -55 -40 c-278 -198 -641 -536 -1004 -934 -108 -118 -237 -255 -286 -304
l-91 -89 -103 6 c-313 18 -647 144 -1008 381 -187 124 -603 440 -625 477 -4 5
0 33 9 62 53 184 82 476 66 652 -10 101 -23 195 -35 253 -7 31 18 29 39 -3 14
-22 24 -25 74 -25 60 0 102 19 102 46 0 22 30 17 55 -10 19 -21 29 -24 66 -19
65 9 88 20 99 48 13 35 32 31 70 -16 39 -49 82 -69 146 -69 59 0 107 23 143
69 25 31 39 39 93 49 431 87 926 268 1235 453 117 69 262 171 292 203 14 14
27 26 31 26 4 0 30 -51 59 -112z m-2725 -201 c20 -53 20 -56 -1 -97 -9 -19
-17 -50 -18 -69 -1 -29 -5 -36 -29 -42 -15 -4 -34 -13 -42 -20 -13 -10 -17
-10 -24 2 -12 18 -4 122 10 151 19 37 74 118 81 118 4 0 14 -19 23 -43z
m-1704 -36 c135 -50 305 -153 455 -276 44 -36 123 -100 177 -142 l96 -77 -41
-24 c-23 -13 -61 -42 -84 -65 l-43 -41 0 69 c0 51 -5 78 -19 101 -44 73 -178
96 -278 50 -127 -59 -212 -211 -248 -437 l-5 -36 -68 35 c-37 20 -105 52 -150
72 l-84 36 -19 58 c-20 59 -95 190 -175 304 -24 35 -44 66 -44 69 0 3 37 45
83 92 46 47 116 130 156 183 l72 96 69 -19 c38 -10 105 -32 150 -48z m5200
-88 c58 -14 68 -18 45 -21 -34 -4 -152 25 -162 41 -4 6 2 8 18 4 13 -4 58 -14
99 -24z m-3437 -33 c14 -37 14 -40 -1 -40 -33 0 -44 16 -37 49 9 41 19 39 38
-9z m888 -43 c46 -30 73 -87 64 -134 -9 -49 -68 -108 -118 -117 -46 -9 -118
20 -142 58 -81 123 73 275 196 193z m-864 -46 c23 -11 46 -28 52 -39 14 -26
14 -72 1 -72 -5 0 -10 7 -10 15 0 28 -46 47 -104 43 -42 -2 -58 1 -75 16 -27
24 -26 34 2 46 36 14 89 11 134 -9z m-73 -77 c15 -6 23 -44 10 -44 -8 0 -33
32 -34 43 0 9 4 9 24 1z m608 -23 c-2 -13 2 -27 10 -32 23 -14 -6 -31 -63 -37
-51 -5 -52 -4 -46 19 3 12 1 29 -5 36 -19 24 21 43 82 39 20 -1 24 -5 22 -25z
m-520 -25 c-3 -31 1 -43 18 -56 l22 -17 -32 -26 c-40 -34 -70 -36 -70 -3 0 13
7 27 16 30 12 5 14 15 9 50 -8 50 -1 69 23 64 13 -3 16 -12 14 -42z m308 15
c0 -5 -6 -11 -12 -14 -10 -3 -10 -9 -1 -24 17 -30 -2 -43 -60 -43 -48 0 -49 1
-43 27 5 16 3 29 -5 33 -6 4 -8 13 -5 19 9 13 126 15 126 2z m-160 -35 c-6 -8
-18 -12 -26 -9 -23 9 -16 23 12 23 22 0 24 -2 14 -14z m-1472 -122 c24 -28 25
-31 18 -139 -5 -94 -11 -123 -41 -195 -19 -47 -42 -119 -51 -161 -16 -73 -18
-76 -59 -98 l-43 -23 -64 54 c-35 30 -85 69 -112 87 l-49 34 7 70 c13 144 67
269 147 341 57 51 97 66 168 62 46 -2 58 -8 79 -32z m389 -103 c38 -21 86 -46
106 -54 40 -17 43 -25 26 -97 -8 -38 -24 -58 -92 -123 -80 -76 -84 -78 -150
-87 -87 -13 -137 -24 -216 -50 -35 -11 -67 -18 -70 -15 -11 12 30 142 71 225
50 104 139 198 208 223 25 8 46 16 47 16 0 1 32 -17 70 -38z m238 -110 c18 -7
17 -9 -13 -25 -32 -16 -38 -12 -26 18 7 18 10 18 39 7z m595 -214 c0 -17 -114
-142 -175 -192 -43 -35 -47 -36 -40 -14 28 90 215 270 215 206z m140 -349 c-7
-29 -19 -57 -26 -61 -31 -18 -16 -63 39 -113 215 -203 631 -499 882 -630 267
-140 570 -234 751 -234 30 0 54 -3 54 -7 0 -5 -37 -36 -83 -69 -335 -249 -651
-385 -1052 -450 -153 -25 -465 -25 -588 -1 -118 24 -240 69 -307 115 l-55 37
1 110 c2 117 20 235 60 380 22 81 45 150 155 463 l33 92 -18 56 c-40 127 -30
217 31 285 33 36 122 93 132 84 2 -2 -2 -28 -9 -57z m5216 -492 c24 -26 44
-58 44 -70 0 -42 -85 -285 -198 -566 -124 -308 -126 -312 -170 -343 l-41 -28
-68 42 c-37 23 -69 42 -70 43 -2 1 27 74 63 162 157 382 238 600 294 791 7 23
20 44 29 46 25 6 69 -23 117 -77z m137 -271 c56 -43 87 -85 87 -119 0 -24 -3
-26 -42 -26 -24 0 -82 -11 -130 -23 -51 -14 -88 -20 -88 -14 0 6 16 54 36 108
34 92 42 104 80 108 6 0 32 -15 57 -34z m-453 -73 c0 -4 -24 -68 -53 -141
l-54 -133 -119 -71 c-195 -118 -389 -262 -519 -388 -80 -77 -114 -80 -182 -16
-60 56 -43 98 84 213 228 206 420 338 703 481 127 64 140 69 140 55z m773
-137 c38 -31 67 -63 67 -74 0 -49 -77 -299 -182 -592 -54 -151 -62 -168 -91
-184 -32 -17 -32 -17 -105 25 -56 32 -72 46 -67 59 75 192 99 281 75 281 -5 0
-16 -14 -25 -30 -11 -21 -39 -42 -97 -71 -153 -77 -316 -190 -467 -324 -91
-80 -119 -85 -181 -29 -46 42 -51 71 -20 121 29 49 234 218 356 295 169 106
484 255 484 228 0 -5 -9 -33 -20 -62 -24 -64 -25 -80 -4 -76 17 3 54 88 54
123 0 11 6 29 13 40 13 20 69 206 83 275 3 19 8 38 11 43 12 20 55 2 116 -48z
m-1758 -120 c41 -9 107 -29 147 -46 40 -17 85 -36 101 -42 15 -6 26 -14 25
-18 -2 -3 -24 -25 -51 -47 -42 -37 -50 -40 -74 -31 -104 39 -256 49 -381 23
-242 -49 -447 -181 -952 -613 -204 -174 -343 -276 -419 -308 -57 -23 -80 -27
-168 -28 -58 0 -107 5 -112 10 -11 11 81 87 544 451 472 372 599 462 780 550
210 101 392 133 560 99z m1905 -146 c25 -20 64 -46 88 -59 45 -25 46 -27 33
-49 -7 -11 -14 -8 -35 15 -14 16 -26 23 -27 17 -1 -7 -2 -19 -3 -25 0 -7 -12
-14 -26 -16 -14 -1 -53 -10 -88 -18 -35 -9 -65 -15 -67 -12 -3 3 11 54 51 187
5 15 4 15 74 -40z m296 -111 c35 -23 66 -49 69 -58 2 -8 -6 -53 -20 -100 -23
-82 -24 -100 -4 -100 20 0 169 -92 169 -104 0 -25 -47 -53 -120 -71 -314 -77
-577 -211 -821 -417 -77 -64 -114 -88 -140 -88 -5 0 -30 19 -54 41 -51 47 -56
73 -24 125 25 41 145 145 242 211 85 56 321 178 424 217 83 31 72 11 134 259
30 120 33 127 56 127 14 0 54 -19 89 -42z m-1474 -100 c81 -45 148 -85 147
-88 0 -3 -18 -20 -40 -39 l-40 -34 -52 29 c-29 15 -101 54 -160 85 l-108 56
48 36 c26 20 50 37 52 37 2 0 71 -37 153 -82z m-732 -49 c-11 -29 -20 -66 -20
-82 0 -59 47 -109 103 -109 26 0 114 29 135 45 22 17 25 -1 5 -35 -21 -38 -92
-78 -138 -78 -44 0 -116 40 -142 78 -49 74 -31 179 38 221 18 11 34 19 36 17
1 -1 -6 -27 -17 -57z m2499 -135 c3 -3 0 -9 -6 -15 -7 -7 -36 6 -94 42 -101
63 -103 65 -95 77 5 8 167 -79 195 -104z m225 -20 c30 -20 57 -42 60 -50 4 -9
-22 -44 -67 -92 -137 -144 -395 -431 -625 -694 -60 -69 -113 -120 -127 -124
-34 -8 -109 37 -124 74 -18 43 1 78 104 202 163 193 621 699 657 724 25 18 46
11 122 -40z m-1404 -141 c74 -42 137 -78 140 -80 8 -7 -63 -62 -79 -63 -15 0
-291 151 -291 160 0 5 81 60 90 60 2 0 65 -34 140 -77z m-693 -3 c-28 -57 -33
-119 -13 -158 35 -69 95 -70 219 -7 27 14 28 14 21 -8 -19 -59 -59 -91 -131
-103 -42 -6 -101 13 -137 44 -26 23 -56 90 -56 126 0 42 34 108 67 128 45 28
52 22 30 -22z m2179 -19 c19 -17 215 -95 498 -197 591 -214 827 -334 1008
-515 89 -88 125 -154 136 -251 25 -219 -96 -442 -336 -623 -332 -249 -843
-404 -1562 -472 -265 -25 -1058 -25 -1310 0 -628 63 -1067 162 -2033 458 -632
194 -931 275 -1631 439 -214 51 -398 95 -409 99 -16 6 -4 16 67 55 48 25 90
45 94 42 4 -2 147 -36 317 -76 626 -144 969 -236 1522 -406 921 -283 1324
-378 1893 -448 283 -35 486 -46 825 -46 495 0 916 38 1274 116 667 144 1091
430 1151 777 23 130 -21 248 -134 362 -151 153 -366 266 -826 437 -118 44
-258 95 -310 115 -52 19 -137 53 -188 75 -75 33 -90 43 -81 54 13 16 21 17 35
5z m-667 -158 c-22 -76 -35 -104 -63 -131 l-35 -35 -45 24 c-87 46 -89 49 -75
102 10 41 18 51 53 69 64 33 149 66 172 67 22 1 22 1 -7 -96z m-2124 -117
c110 -32 415 -182 695 -341 624 -355 955 -536 1103 -604 l69 -31 -29 -23 c-15
-13 -80 -63 -144 -110 l-116 -87 -80 10 c-45 6 -107 19 -139 30 -80 28 -312
151 -609 322 -681 394 -820 458 -990 458 -91 0 -154 -16 -413 -100 -359 -118
-492 -147 -727 -157 -218 -9 -419 19 -670 93 -135 40 -275 92 -275 102 0 4 19
20 41 36 22 15 103 80 179 142 126 103 141 113 164 104 46 -17 230 -49 354
-60 224 -20 461 15 774 116 397 128 426 135 593 130 103 -3 149 -9 220 -30z
m1873 -36 c61 -36 112 -67 112 -70 -1 -3 -13 -20 -29 -38 l-28 -33 -124 71
c-68 40 -128 75 -132 79 -9 9 62 61 78 58 6 -1 61 -31 123 -67z m-661 22 c-10
-10 -17 -25 -17 -33 0 -8 -7 -34 -15 -58 -14 -40 -14 -46 2 -80 12 -23 32 -43
57 -55 38 -19 39 -19 95 3 31 12 64 27 74 32 29 16 31 3 7 -37 -25 -40 -86
-74 -135 -74 -16 0 -48 9 -70 19 -120 55 -142 193 -45 275 38 31 74 37 47 8z
m1065 -359 c87 -178 23 -380 -190 -591 -46 -45 -172 -148 -280 -229 -205 -153
-322 -261 -382 -350 -34 -51 -36 -52 -82 -53 -27 0 -48 3 -48 6 0 4 20 36 44
73 63 94 215 237 400 375 266 200 415 359 462 498 25 73 24 170 -4 230 l-21
48 25 30 c14 16 30 30 34 30 5 0 24 -30 42 -67z m-478 8 c-8 -15 -17 -55 -20
-88 -6 -56 -5 -62 22 -92 44 -49 85 -51 167 -8 63 33 67 34 61 14 -39 -132
-231 -146 -301 -22 -39 69 -25 159 32 203 41 32 57 29 39 -7z m2743 -461 c14
-53 18 -99 17 -250 -1 -334 -56 -551 -179 -716 -220 -293 -691 -535 -1270
-654 -140 -29 -322 -56 -515 -77 -210 -23 -1002 -26 -1225 -5 -160 15 -442 50
-467 58 -20 6 -15 54 19 174 59 205 172 329 366 398 l72 26 375 -3 c537 -4
858 17 1240 80 588 97 1028 281 1291 540 147 144 238 326 239 479 1 55 11 41
37 -50z m-7394 -30 c62 -16 249 -61 417 -100 614 -143 990 -244 1625 -439 678
-209 938 -278 1330 -355 221 -43 668 -106 753 -106 4 0 -27 -17 -69 -38 -98
-49 -160 -100 -216 -179 -59 -83 -98 -178 -120 -291 -21 -110 -5 -105 -214
-63 -363 74 -648 154 -1214 341 -789 260 -945 303 -1630 450 -693 148 -1020
232 -1247 320 -261 101 -424 216 -473 333 -22 53 -19 56 26 41 76 -27 237 -38
356 -26 155 16 248 37 408 91 77 26 144 49 148 49 4 1 58 -11 120 -28z"/>
<path d="M5435 4620 c-11 -18 328 -273 518 -388 119 -72 355 -192 379 -192 42
0 12 29 -68 65 -190 85 -430 236 -667 419 -76 58 -142 106 -147 106 -5 0 -12
-4 -15 -10z"/>
<path d="M6190 8748 c0 -7 21 -91 47 -185 30 -112 51 -173 60 -173 7 0 13 7
13 15 0 18 -76 301 -90 333 -10 24 -30 30 -30 10z"/>
<path d="M6596 8529 c-36 -88 -45 -124 -37 -132 6 -6 13 -9 15 -6 12 12 95
242 90 250 -12 20 -23 3 -68 -112z"/>
<path d="M5857 8433 c-14 -13 -5 -22 99 -97 94 -68 124 -82 124 -58 0 8 -203
162 -212 162 -3 0 -8 -3 -11 -7z"/>
<path d="M8514 8139 c-7 -12 13 -29 35 -29 21 0 175 -75 224 -109 43 -29 57
-31 57 -5 0 18 -133 99 -213 129 -75 28 -93 30 -103 14z"/>
<path d="M6535 8035 c-34 -33 -34 -93 -2 -123 56 -53 152 -12 150 64 -2 78
-94 114 -148 59z"/>
<path d="M6085 7935 c-17 -16 -25 -35 -25 -60 0 -94 129 -118 165 -31 16 39
12 60 -18 94 -29 31 -90 30 -122 -3z"/>
<path d="M1920 5270 c-21 -13 -5 -35 42 -62 25 -14 161 -79 304 -146 142 -66
431 -204 641 -306 617 -300 720 -344 817 -353 74 -7 148 8 221 45 28 13 178
101 335 194 157 93 309 184 338 201 35 21 63 48 83 80 16 26 29 49 29 51 0 9
-201 -107 -569 -327 -270 -162 -311 -180 -401 -180 -98 -1 -137 16 -840 356
-492 237 -729 347 -750 347 -7 0 -18 -7 -24 -16 -11 -14 -14 -13 -36 5 -19 15
-22 23 -12 29 8 6 1 14 -25 26 -101 49 -140 64 -153 56z"/>
<path d="M8860 5267 c0 -7 39 -55 88 -106 73 -79 89 -92 99 -79 10 12 -2 30
-73 106 -80 86 -114 110 -114 79z"/>
<path d="M8673 5124 c-4 -11 21 -43 83 -105 84 -85 114 -105 114 -76 0 13
-171 197 -183 197 -4 0 -10 -7 -14 -16z"/>
<path d="M8470 4952 c0 -9 41 -55 91 -101 68 -63 93 -81 102 -72 8 8 -11 34
-78 101 -89 90 -115 106 -115 72z"/>
<path d="M8257 4773 c-13 -12 -7 -19 83 -102 64 -59 95 -81 107 -77 13 5 -2
26 -72 96 -86 86 -103 98 -118 83z"/>
<path d="M8037 4573 c-4 -3 -7 -10 -7 -13 0 -12 170 -175 182 -175 33 0 11 35
-68 110 -91 86 -96 90 -107 78z"/>
<path d="M7807 4343 c-13 -13 -6 -22 78 -93 62 -53 90 -70 102 -65 15 6 2 21
-67 86 -82 76 -99 87 -113 72z"/>
<path d="M7553 4104 c-6 -17 8 -32 124 -130 40 -34 63 -38 63 -11 0 11 -150
148 -171 155 -5 2 -12 -4 -16 -14z"/>
<path d="M7314 3888 c-8 -13 140 -158 162 -158 33 0 18 24 -60 94 -46 42 -86
76 -89 76 -3 0 -9 -5 -13 -12z"/>
<path d="M7097 3703 c-4 -3 -7 -12 -7 -18 0 -14 57 -77 112 -125 31 -26 39
-29 44 -16 4 10 -17 41 -63 91 -69 76 -75 80 -86 68z"/>
<path d="M6955 3573 c-102 -76 -391 -230 -550 -293 -377 -151 -734 -217 -1025
-192 -113 9 -157 5 -138 -13 27 -27 346 -33 522 -10 217 29 493 109 726 212
211 94 500 260 500 288 0 21 -13 25 -35 8z"/>
</g>
</svg>
